{
    "asset" : {
        "generator" : "Khronos glTF Blender I/O v1.1.46",
        "version" : "2.0"
    },
    "scene" : 0,
    "scenes" : [
        {
            "extras" : {
                "glTF2ExportSettings" : {
                    "export_all_influences" : 1,
                    "export_animations" : 0,
                    "export_apply" : 1,
                    "export_cameras" : 0,
                    "export_colors" : 1,
                    "export_def_bones" : 1,
                    "export_extras" : 1,
                    "export_force_sampling" : 1,
                    "export_format" : "GLTF_EMBEDDED",
                    "export_frame_range" : 1,
                    "export_materials" : 1,
                    "export_morph" : 0,
                    "export_morph_tangent" : 1,
                    "export_nla_strips" : 1,
                    "export_normals" : 1,
                    "export_selected" : 1,
                    "export_skins" : 0,
                    "export_texcoords" : 1,
                    "export_yup" : 0
                }
            },
            "name" : "Scene",
            "nodes" : [
                0,
                1,
                2,
                3
            ]
        },
        {
            "name" : "Scene.001"
        }
    ],
    "nodes" : [
        {
            "mesh" : 0,
            "name" : "Bank"
        },
        {
            "mesh" : 1,
            "name" : "Trashcan"
        },
        {
            "mesh" : 2,
            "name" : "Bank_target"
        },
        {
            "mesh" : 3,
            "name" : "Trashcan_target"
        }
    ],
    "materials" : [
        {
            "doubleSided" : true,
            "emissiveFactor" : [
                0,
                0,
                0
            ],
            "name" : "Poller",
            "pbrMetallicRoughness" : {
                "baseColorFactor" : [
                    0.5173342227935791,
                    0.5173342227935791,
                    0.5173342227935791,
                    1
                ],
                "metallicFactor" : 1,
                "roughnessFactor" : 0.5
            }
        },
        {
            "doubleSided" : true,
            "emissiveFactor" : [
                0,
                0,
                0
            ],
            "name" : "Bank",
            "pbrMetallicRoughness" : {
                "metallicFactor" : 0,
                "roughnessFactor" : 0.5
            }
        },
        {
            "doubleSided" : true,
            "emissiveFactor" : [
                0.013545891270041466,
                0.013545891270041466,
                0.013545891270041466
            ],
            "name" : "Material.019",
            "pbrMetallicRoughness" : {
                "baseColorTexture" : {
                    "index" : 0,
                    "texCoord" : 0
                },
                "metallicFactor" : 0,
                "roughnessFactor" : 1
            }
        },
        {
            "doubleSided" : true,
            "emissiveFactor" : [
                0,
                0,
                0
            ],
            "name" : "Bank.001",
            "pbrMetallicRoughness" : {
                "metallicFactor" : 0,
                "roughnessFactor" : 0.5
            }
        },
        {
            "doubleSided" : true,
            "emissiveFactor" : [
                0,
                0,
                0
            ],
            "name" : "Poller.001",
            "pbrMetallicRoughness" : {
                "baseColorFactor" : [
                    0.5173342227935791,
                    0.5173342227935791,
                    0.5173342227935791,
                    1
                ],
                "metallicFactor" : 1,
                "roughnessFactor" : 0.5
            }
        },
        {
            "doubleSided" : true,
            "emissiveFactor" : [
                0,
                0,
                0
            ],
            "name" : "Target",
            "pbrMetallicRoughness" : {
                "baseColorTexture" : {
                    "index" : 1,
                    "texCoord" : 0
                },
                "metallicFactor" : 1,
                "roughnessFactor" : 0.5
            }
        },
        {
            "doubleSided" : true,
            "emissiveFactor" : [
                0,
                0,
                0
            ],
            "name" : "Poller.002",
            "pbrMetallicRoughness" : {
                "baseColorFactor" : [
                    0.5173342227935791,
                    0.5173342227935791,
                    0.5173342227935791,
                    1
                ],
                "metallicFactor" : 1,
                "roughnessFactor" : 0.5
            }
        }
    ],
    "meshes" : [
        {
            "name" : "Plane.087",
            "primitives" : [
                {
                    "attributes" : {
                        "POSITION" : 0,
                        "NORMAL" : 1,
                        "TEXCOORD_0" : 2
                    },
                    "indices" : 3,
                    "material" : 0
                },
                {
                    "attributes" : {
                        "POSITION" : 4,
                        "NORMAL" : 5,
                        "TEXCOORD_0" : 6
                    },
                    "indices" : 7,
                    "material" : 1
                }
            ]
        },
        {
            "name" : "Cylinder.002",
            "primitives" : [
                {
                    "attributes" : {
                        "POSITION" : 8,
                        "NORMAL" : 9,
                        "TEXCOORD_0" : 10
                    },
                    "indices" : 11,
                    "material" : 0
                }
            ]
        },
        {
            "name" : "Plane.054",
            "primitives" : [
                {
                    "attributes" : {
                        "POSITION" : 12,
                        "NORMAL" : 13,
                        "TEXCOORD_0" : 14
                    },
                    "indices" : 15,
                    "material" : 2
                },
                {
                    "attributes" : {
                        "POSITION" : 16,
                        "NORMAL" : 17,
                        "TEXCOORD_0" : 18
                    },
                    "indices" : 19,
                    "material" : 3
                },
                {
                    "attributes" : {
                        "POSITION" : 20,
                        "NORMAL" : 21,
                        "TEXCOORD_0" : 22
                    },
                    "indices" : 3,
                    "material" : 4
                }
            ]
        },
        {
            "name" : "Cylinder.001",
            "primitives" : [
                {
                    "attributes" : {
                        "POSITION" : 23,
                        "NORMAL" : 24,
                        "TEXCOORD_0" : 25
                    },
                    "indices" : 26,
                    "material" : 5
                },
                {
                    "attributes" : {
                        "POSITION" : 27,
                        "NORMAL" : 28,
                        "TEXCOORD_0" : 29
                    },
                    "indices" : 30,
                    "material" : 6
                }
            ]
        }
    ],
    "textures" : [
        {
            "source" : 0
        },
        {
            "source" : 1
        }
    ],
    "images" : [
        {
            "bufferView" : 16,
            "mimeType" : "image/png",
            "name" : "Bank_Target"
        },
        {
            "bufferView" : 28,
            "mimeType" : "image/png",
            "name" : "Trashcan_Target"
        }
    ],
    "accessors" : [
        {
            "bufferView" : 0,
            "componentType" : 5126,
            "count" : 128,
            "max" : [
                0.4416593313217163,
                1,
                1
            ],
            "min" : [
                -0.3500000238418579,
                -1,
                0
            ],
            "type" : "VEC3"
        },
        {
            "bufferView" : 1,
            "componentType" : 5126,
            "count" : 128,
            "type" : "VEC3"
        },
        {
            "bufferView" : 2,
            "componentType" : 5126,
            "count" : 128,
            "type" : "VEC2"
        },
        {
            "bufferView" : 3,
            "componentType" : 5123,
            "count" : 216,
            "type" : "SCALAR"
        },
        {
            "bufferView" : 4,
            "componentType" : 5126,
            "count" : 346,
            "max" : [
                0.3500000238418579,
                1.100000023841858,
                1.0068780183792114
            ],
            "min" : [
                -0.4000000059604645,
                -1.100000023841858,
                0.4000000059604645
            ],
            "type" : "VEC3"
        },
        {
            "bufferView" : 5,
            "componentType" : 5126,
            "count" : 346,
            "type" : "VEC3"
        },
        {
            "bufferView" : 6,
            "componentType" : 5126,
            "count" : 346,
            "type" : "VEC2"
        },
        {
            "bufferView" : 7,
            "componentType" : 5123,
            "count" : 678,
            "type" : "SCALAR"
        },
        {
            "bufferView" : 8,
            "componentType" : 5126,
            "count" : 358,
            "max" : [
                0.42606598138809204,
                0.30000004172325134,
                0.9822404980659485
            ],
            "min" : [
                -0.04999999701976776,
                -0.30000001192092896,
                -0.10000000149011612
            ],
            "type" : "VEC3"
        },
        {
            "bufferView" : 9,
            "componentType" : 5126,
            "count" : 358,
            "type" : "VEC3"
        },
        {
            "bufferView" : 10,
            "componentType" : 5126,
            "count" : 358,
            "type" : "VEC2"
        },
        {
            "bufferView" : 11,
            "componentType" : 5123,
            "count" : 672,
            "type" : "SCALAR"
        },
        {
            "bufferView" : 12,
            "componentType" : 5126,
            "count" : 8,
            "max" : [
                0.30414003133773804,
                0.8999999761581421,
                1.0068780183792114
            ],
            "min" : [
                0.21248070895671844,
                -0.8999999761581421,
                0.5068779587745667
            ],
            "type" : "VEC3"
        },
        {
            "bufferView" : 13,
            "componentType" : 5126,
            "count" : 8,
            "type" : "VEC3"
        },
        {
            "bufferView" : 14,
            "componentType" : 5126,
            "count" : 8,
            "type" : "VEC2"
        },
        {
            "bufferView" : 15,
            "componentType" : 5123,
            "count" : 12,
            "type" : "SCALAR"
        },
        {
            "bufferView" : 17,
            "componentType" : 5126,
            "count" : 342,
            "max" : [
                0.3500000238418579,
                1.100000023841858,
                1.0068780183792114
            ],
            "min" : [
                -0.4000000059604645,
                -1.100000023841858,
                0.4000000059604645
            ],
            "type" : "VEC3"
        },
        {
            "bufferView" : 18,
            "componentType" : 5126,
            "count" : 342,
            "type" : "VEC3"
        },
        {
            "bufferView" : 19,
            "componentType" : 5126,
            "count" : 342,
            "type" : "VEC2"
        },
        {
            "bufferView" : 20,
            "componentType" : 5123,
            "count" : 666,
            "type" : "SCALAR"
        },
        {
            "bufferView" : 21,
            "componentType" : 5126,
            "count" : 128,
            "max" : [
                0.4416593313217163,
                1,
                1
            ],
            "min" : [
                -0.3500000238418579,
                -1,
                0
            ],
            "type" : "VEC3"
        },
        {
            "bufferView" : 22,
            "componentType" : 5126,
            "count" : 128,
            "type" : "VEC3"
        },
        {
            "bufferView" : 23,
            "componentType" : 5126,
            "count" : 128,
            "type" : "VEC2"
        },
        {
            "bufferView" : 24,
            "componentType" : 5126,
            "count" : 48,
            "max" : [
                0.42606598138809204,
                0.30000001192092896,
                0.8500000238418579
            ],
            "min" : [
                0.2537055015563965,
                -0.30000001192092896,
                0.09999999403953552
            ],
            "type" : "VEC3"
        },
        {
            "bufferView" : 25,
            "componentType" : 5126,
            "count" : 48,
            "type" : "VEC3"
        },
        {
            "bufferView" : 26,
            "componentType" : 5126,
            "count" : 48,
            "type" : "VEC2"
        },
        {
            "bufferView" : 27,
            "componentType" : 5123,
            "count" : 72,
            "type" : "SCALAR"
        },
        {
            "bufferView" : 29,
            "componentType" : 5126,
            "count" : 309,
            "max" : [
                0.42606598138809204,
                0.30000004172325134,
                0.9822404980659485
            ],
            "min" : [
                -0.04999999701976776,
                -0.30000001192092896,
                -0.10000000149011612
            ],
            "type" : "VEC3"
        },
        {
            "bufferView" : 30,
            "componentType" : 5126,
            "count" : 309,
            "type" : "VEC3"
        },
        {
            "bufferView" : 31,
            "componentType" : 5126,
            "count" : 309,
            "type" : "VEC2"
        },
        {
            "bufferView" : 32,
            "componentType" : 5123,
            "count" : 597,
            "type" : "SCALAR"
        }
    ],
    "bufferViews" : [
        {
            "buffer" : 0,
            "byteLength" : 1536,
            "byteOffset" : 0
        },
        {
            "buffer" : 0,
            "byteLength" : 1536,
            "byteOffset" : 1536
        },
        {
            "buffer" : 0,
            "byteLength" : 1024,
            "byteOffset" : 3072
        },
        {
            "buffer" : 0,
            "byteLength" : 432,
            "byteOffset" : 4096
        },
        {
            "buffer" : 0,
            "byteLength" : 4152,
            "byteOffset" : 4528
        },
        {
            "buffer" : 0,
            "byteLength" : 4152,
            "byteOffset" : 8680
        },
        {
            "buffer" : 0,
            "byteLength" : 2768,
            "byteOffset" : 12832
        },
        {
            "buffer" : 0,
            "byteLength" : 1356,
            "byteOffset" : 15600
        },
        {
            "buffer" : 0,
            "byteLength" : 4296,
            "byteOffset" : 16956
        },
        {
            "buffer" : 0,
            "byteLength" : 4296,
            "byteOffset" : 21252
        },
        {
            "buffer" : 0,
            "byteLength" : 2864,
            "byteOffset" : 25548
        },
        {
            "buffer" : 0,
            "byteLength" : 1344,
            "byteOffset" : 28412
        },
        {
            "buffer" : 0,
            "byteLength" : 96,
            "byteOffset" : 29756
        },
        {
            "buffer" : 0,
            "byteLength" : 96,
            "byteOffset" : 29852
        },
        {
            "buffer" : 0,
            "byteLength" : 64,
            "byteOffset" : 29948
        },
        {
            "buffer" : 0,
            "byteLength" : 24,
            "byteOffset" : 30012
        },
        {
            "buffer" : 0,
            "byteLength" : 16522,
            "byteOffset" : 30036
        },
        {
            "buffer" : 0,
            "byteLength" : 4104,
            "byteOffset" : 46560
        },
        {
            "buffer" : 0,
            "byteLength" : 4104,
            "byteOffset" : 50664
        },
        {
            "buffer" : 0,
            "byteLength" : 2736,
            "byteOffset" : 54768
        },
        {
            "buffer" : 0,
            "byteLength" : 1332,
            "byteOffset" : 57504
        },
        {
            "buffer" : 0,
            "byteLength" : 1536,
            "byteOffset" : 58836
        },
        {
            "buffer" : 0,
            "byteLength" : 1536,
            "byteOffset" : 60372
        },
        {
            "buffer" : 0,
            "byteLength" : 1024,
            "byteOffset" : 61908
        },
        {
            "buffer" : 0,
            "byteLength" : 576,
            "byteOffset" : 62932
        },
        {
            "buffer" : 0,
            "byteLength" : 576,
            "byteOffset" : 63508
        },
        {
            "buffer" : 0,
            "byteLength" : 384,
            "byteOffset" : 64084
        },
        {
            "buffer" : 0,
            "byteLength" : 144,
            "byteOffset" : 64468
        },
        {
            "buffer" : 0,
            "byteLength" : 16919,
            "byteOffset" : 64612
        },
        {
            "buffer" : 0,
            "byteLength" : 3708,
            "byteOffset" : 81532
        },
        {
            "buffer" : 0,
            "byteLength" : 3708,
            "byteOffset" : 85240
        },
        {
            "buffer" : 0,
            "byteLength" : 2472,
            "byteOffset" : 88948
        },
        {
            "buffer" : 0,
            "byteLength" : 1194,
            "byteOffset" : 91420
        }
    ],
    "buffers" : [
        {
            "byteLength" : 92616,
            "uri" : "data:application/octet-stream;base64,"
        }
    ]
}
