{
    "asset" : {
        "generator" : "Khronos glTF Blender I/O v1.1.46",
        "version" : "2.0"
    },
    "scene" : 0,
    "scenes" : [
        {
            "extras" : {
                "glTF2ExportSettings" : {
                    "export_apply" : 0,
                    "export_cameras" : 0,
                    "export_extras" : 1,
                    "export_format" : "GLTF_EMBEDDED",
                    "export_selected" : 1,
                    "export_yup" : 0
                }
            },
            "name" : "Scene",
            "nodes" : [
                0,
                1,
                2
            ]
        }
    ],
    "nodes" : [
        {
            "mesh" : 0,
            "name" : "Cross_Surrounding",
            "rotation" : [
                0,
                0,
                0.7071065902709961,
                -0.7071069478988647
            ],
            "scale" : [
                -7.94923734664917,
                -7.94923734664917,
                -7.94923734664917
            ]
        },
        {
            "mesh" : 1,
            "name" : "Cross_Street",
            "rotation" : [
                0,
                0,
                0.7071065902709961,
                -0.7071069478988647
            ],
            "scale" : [
                -7.94923734664917,
                -7.94923734664917,
                -7.94923734664917
            ]
        },
        {
            "mesh" : 2,
            "name" : "Cross_Sidewalk",
            "rotation" : [
                0,
                0,
                0.7071065902709961,
                -0.7071069478988647
            ],
            "scale" : [
                -7.94923734664917,
                -7.94923734664917,
                -7.94923734664917
            ]
        }
    ],
    "materials" : [
        {
            "doubleSided" : true,
            "emissiveFactor" : [
                0,
                0,
                0
            ],
            "name" : "Stra\u00dfe.002",
            "pbrMetallicRoughness" : {
                "baseColorTexture" : {
                    "index" : 0,
                    "texCoord" : 0
                },
                "metallicFactor" : 0,
                "roughnessFactor" : 0.5
            }
        }
    ],
    "meshes" : [
        {
            "name" : "Plane.006",
            "primitives" : [
                {
                    "attributes" : {
                        "POSITION" : 0,
                        "NORMAL" : 1,
                        "TEXCOORD_0" : 2
                    },
                    "indices" : 3,
                    "material" : 0
                }
            ]
        },
        {
            "name" : "Plane.007",
            "primitives" : [
                {
                    "attributes" : {
                        "POSITION" : 4,
                        "NORMAL" : 5,
                        "TEXCOORD_0" : 6
                    },
                    "indices" : 7,
                    "material" : 0
                }
            ]
        },
        {
            "name" : "Plane.008",
            "primitives" : [
                {
                    "attributes" : {
                        "POSITION" : 8,
                        "NORMAL" : 9,
                        "TEXCOORD_0" : 10
                    },
                    "indices" : 11,
                    "material" : 0
                }
            ]
        }
    ],
    "textures" : [
        {
            "source" : 0
        }
    ],
    "images" : [
        {
            "bufferView" : 4,
            "mimeType" : "image/png",
            "name" : "Gerade Stra\u00dfe mit B\u00fcrgersteig_Textur.png"
        }
    ],
    "accessors" : [
        {
            "bufferView" : 0,
            "componentType" : 5126,
            "count" : 208,
            "max" : [
                1.0062625408172607,
                1.006265640258789,
                -1.8663826040210552e-10
            ],
            "min" : [
                -1.0062625408172607,
                -1.006265640258789,
                -0.03466304764151573
            ],
            "type" : "VEC3"
        },
        {
            "bufferView" : 1,
            "componentType" : 5126,
            "count" : 208,
            "type" : "VEC3"
        },
        {
            "bufferView" : 2,
            "componentType" : 5126,
            "count" : 208,
            "type" : "VEC2"
        },
        {
            "bufferView" : 3,
            "componentType" : 5123,
            "count" : 552,
            "type" : "SCALAR"
        },
        {
            "bufferView" : 5,
            "componentType" : 5126,
            "count" : 172,
            "max" : [
                1.0062625408172607,
                1.006265640258789,
                3.725290298461914e-09
            ],
            "min" : [
                -1.0062625408172607,
                -1.006265640258789,
                -1.8663826040210552e-10
            ],
            "type" : "VEC3"
        },
        {
            "bufferView" : 6,
            "componentType" : 5126,
            "count" : 172,
            "type" : "VEC3"
        },
        {
            "bufferView" : 7,
            "componentType" : 5126,
            "count" : 172,
            "type" : "VEC2"
        },
        {
            "bufferView" : 8,
            "componentType" : 5123,
            "count" : 510,
            "type" : "SCALAR"
        },
        {
            "bufferView" : 9,
            "componentType" : 5126,
            "count" : 1808,
            "max" : [
                1.0062625408172607,
                1.006265640258789,
                3.725290298461914e-09
            ],
            "min" : [
                -1.0062625408172607,
                -1.006265640258789,
                -0.03466304764151573
            ],
            "type" : "VEC3"
        },
        {
            "bufferView" : 10,
            "componentType" : 5126,
            "count" : 1808,
            "type" : "VEC3"
        },
        {
            "bufferView" : 11,
            "componentType" : 5126,
            "count" : 1808,
            "type" : "VEC2"
        },
        {
            "bufferView" : 12,
            "componentType" : 5123,
            "count" : 3096,
            "type" : "SCALAR"
        }
    ],
    "bufferViews" : [
        {
            "buffer" : 0,
            "byteLength" : 2496,
            "byteOffset" : 0
        },
        {
            "buffer" : 0,
            "byteLength" : 2496,
            "byteOffset" : 2496
        },
        {
            "buffer" : 0,
            "byteLength" : 1664,
            "byteOffset" : 4992
        },
        {
            "buffer" : 0,
            "byteLength" : 1104,
            "byteOffset" : 6656
        },
        {
            "buffer" : 0,
            "byteLength" : 21591,
            "byteOffset" : 7760
        },
        {
            "buffer" : 0,
            "byteLength" : 2064,
            "byteOffset" : 29352
        },
        {
            "buffer" : 0,
            "byteLength" : 2064,
            "byteOffset" : 31416
        },
        {
            "buffer" : 0,
            "byteLength" : 1376,
            "byteOffset" : 33480
        },
        {
            "buffer" : 0,
            "byteLength" : 1020,
            "byteOffset" : 34856
        },
        {
            "buffer" : 0,
            "byteLength" : 21696,
            "byteOffset" : 35876
        },
        {
            "buffer" : 0,
            "byteLength" : 21696,
            "byteOffset" : 57572
        },
        {
            "buffer" : 0,
            "byteLength" : 14464,
            "byteOffset" : 79268
        },
        {
            "buffer" : 0,
            "byteLength" : 6192,
            "byteOffset" : 93732
        }
    ],
    "buffers" : [
        {
            "byteLength" : 99924,
            "uri" : "data:application/octet-stream;base64,"
        }
    ]
}
