{
    "asset" : {
        "generator" : "Khronos glTF Blender I/O v1.1.46",
        "version" : "2.0"
    },
    "scene" : 0,
    "scenes" : [
        {
            "name" : "Scene",
            "nodes" : [
                0
            ]
        }
    ],
    "nodes" : [
        {
            "mesh" : 0,
            "name" : "Kurve mit B\u00fcrgersteig",
            "scale" : [
                -7.94923734664917,
                -2.4841365814208984,
                -7.94923734664917
            ]
        }
    ],
    "materials" : [
        {
            "doubleSided" : true,
            "emissiveFactor" : [
                0,
                0,
                0
            ],
            "name" : "Material.002",
            "pbrMetallicRoughness" : {
                "baseColorTexture" : {
                    "index" : 0,
                    "texCoord" : 0
                },
                "metallicFactor" : 0,
                "roughnessFactor" : 1
            }
        }
    ],
    "meshes" : [
        {
            "name" : "Plane.001",
            "primitives" : [
                {
                    "attributes" : {
                        "POSITION" : 0,
                        "NORMAL" : 1,
                        "TEXCOORD_0" : 2
                    },
                    "indices" : 3,
                    "material" : 0
                }
            ]
        }
    ],
    "textures" : [
        {
            "source" : 0
        }
    ],
    "images" : [
        {
            "bufferView" : 4,
            "mimeType" : "image/png",
            "name" : "Image_0"
        }
    ],
    "accessors" : [
        {
            "bufferView" : 0,
            "componentType" : 5126,
            "count" : 1860,
            "max" : [
                1.007168173789978,
                0.00027208292158320546,
                0.995385468006134
            ],
            "min" : [
                -1.0038809776306152,
                -0.03485330566763878,
                -1.0123766660690308
            ],
            "type" : "VEC3"
        },
        {
            "bufferView" : 1,
            "componentType" : 5126,
            "count" : 1860,
            "type" : "VEC3"
        },
        {
            "bufferView" : 2,
            "componentType" : 5126,
            "count" : 1860,
            "type" : "VEC2"
        },
        {
            "bufferView" : 3,
            "componentType" : 5123,
            "count" : 1920,
            "type" : "SCALAR"
        }
    ],
    "bufferViews" : [
        {
            "buffer" : 0,
            "byteLength" : 22320,
            "byteOffset" : 0
        },
        {
            "buffer" : 0,
            "byteLength" : 22320,
            "byteOffset" : 22320
        },
        {
            "buffer" : 0,
            "byteLength" : 14880,
            "byteOffset" : 44640
        },
        {
            "buffer" : 0,
            "byteLength" : 3840,
            "byteOffset" : 59520
        },
        {
            "buffer" : 0,
            "byteLength" : 20811,
            "byteOffset" : 63360
        }
    ],
    "buffers" : [
        {
            "byteLength" : 84172,
            "uri" : "data:application/octet-stream;base64,"
        }
    ]
}
