{
    "asset" : {
        "generator" : "Khronos glTF Blender I/O v1.1.46",
        "version" : "2.0"
    },
    "scene" : 0,
    "scenes" : [
        {
            "extras" : {
                "glTF2ExportSettings" : {
                    "export_apply" : 0,
                    "export_cameras" : 0,
                    "export_extras" : 1,
                    "export_format" : "GLTF_EMBEDDED",
                    "export_selected" : 1,
                    "export_yup" : 0
                }
            },
            "name" : "Scene",
            "nodes" : [
                0,
                1,
                2
            ]
        }
    ],
    "nodes" : [
        {
            "mesh" : 0,
            "name" : "Curve_Surrounding",
            "scale" : [
                -7.94923734664917,
                -7.94923734664917,
                -7.94923734664917
            ]
        },
        {
            "mesh" : 1,
            "name" : "Curve_Street",
            "scale" : [
                -7.94923734664917,
                -7.94923734664917,
                -7.94923734664917
            ]
        },
        {
            "mesh" : 2,
            "name" : "Curve_Sidewalk",
            "scale" : [
                -7.94923734664917,
                -7.94923734664917,
                -7.94923734664917
            ]
        }
    ],
    "materials" : [
        {
            "doubleSided" : true,
            "emissiveFactor" : [
                0,
                0,
                0
            ],
            "name" : "Material.001",
            "pbrMetallicRoughness" : {
                "baseColorTexture" : {
                    "index" : 0,
                    "texCoord" : 0
                },
                "metallicFactor" : 0,
                "roughnessFactor" : 1
            }
        }
    ],
    "meshes" : [
        {
            "name" : "Plane.004",
            "primitives" : [
                {
                    "attributes" : {
                        "POSITION" : 0,
                        "NORMAL" : 1,
                        "TEXCOORD_0" : 2
                    },
                    "indices" : 3,
                    "material" : 0
                }
            ]
        },
        {
            "name" : "Plane.014",
            "primitives" : [
                {
                    "attributes" : {
                        "POSITION" : 4,
                        "NORMAL" : 5,
                        "TEXCOORD_0" : 6
                    },
                    "indices" : 7,
                    "material" : 0
                }
            ]
        },
        {
            "name" : "Plane.015",
            "primitives" : [
                {
                    "attributes" : {
                        "POSITION" : 8,
                        "NORMAL" : 9,
                        "TEXCOORD_0" : 10
                    },
                    "indices" : 11,
                    "material" : 0
                }
            ]
        }
    ],
    "textures" : [
        {
            "source" : 0
        }
    ],
    "images" : [
        {
            "bufferView" : 4,
            "mimeType" : "image/png",
            "name" : "Kurve mit B\u00fcrgersteig_Textur"
        }
    ],
    "accessors" : [
        {
            "bufferView" : 0,
            "componentType" : 5126,
            "count" : 98,
            "max" : [
                1.007168173789978,
                1.0123766660690308,
                0
            ],
            "min" : [
                -1.0038809776306152,
                -0.995385468006134,
                -0.03485330566763878
            ],
            "type" : "VEC3"
        },
        {
            "bufferView" : 1,
            "componentType" : 5126,
            "count" : 98,
            "type" : "VEC3"
        },
        {
            "bufferView" : 2,
            "componentType" : 5126,
            "count" : 98,
            "type" : "VEC2"
        },
        {
            "bufferView" : 3,
            "componentType" : 5123,
            "count" : 246,
            "type" : "SCALAR"
        },
        {
            "bufferView" : 5,
            "componentType" : 5126,
            "count" : 70,
            "max" : [
                0.33154943585395813,
                1.0123766660690308,
                0.00027208292158320546
            ],
            "min" : [
                -1.003880500793457,
                -0.32627812027931213,
                -0.00034680572571232915
            ],
            "type" : "VEC3"
        },
        {
            "bufferView" : 6,
            "componentType" : 5126,
            "count" : 70,
            "type" : "VEC3"
        },
        {
            "bufferView" : 7,
            "componentType" : 5126,
            "count" : 70,
            "type" : "VEC2"
        },
        {
            "bufferView" : 8,
            "componentType" : 5123,
            "count" : 204,
            "type" : "SCALAR"
        },
        {
            "bufferView" : 9,
            "componentType" : 5126,
            "count" : 836,
            "max" : [
                0.5832270383834839,
                1.0123766660690308,
                0.00027208292158320546
            ],
            "min" : [
                -1.0038809776306152,
                -0.5758306980133057,
                -0.03485330566763878
            ],
            "type" : "VEC3"
        },
        {
            "bufferView" : 10,
            "componentType" : 5126,
            "count" : 836,
            "type" : "VEC3"
        },
        {
            "bufferView" : 11,
            "componentType" : 5126,
            "count" : 836,
            "type" : "VEC2"
        },
        {
            "bufferView" : 12,
            "componentType" : 5123,
            "count" : 1260,
            "type" : "SCALAR"
        }
    ],
    "bufferViews" : [
        {
            "buffer" : 0,
            "byteLength" : 1176,
            "byteOffset" : 0
        },
        {
            "buffer" : 0,
            "byteLength" : 1176,
            "byteOffset" : 1176
        },
        {
            "buffer" : 0,
            "byteLength" : 784,
            "byteOffset" : 2352
        },
        {
            "buffer" : 0,
            "byteLength" : 492,
            "byteOffset" : 3136
        },
        {
            "buffer" : 0,
            "byteLength" : 20811,
            "byteOffset" : 3628
        },
        {
            "buffer" : 0,
            "byteLength" : 840,
            "byteOffset" : 24440
        },
        {
            "buffer" : 0,
            "byteLength" : 840,
            "byteOffset" : 25280
        },
        {
            "buffer" : 0,
            "byteLength" : 560,
            "byteOffset" : 26120
        },
        {
            "buffer" : 0,
            "byteLength" : 408,
            "byteOffset" : 26680
        },
        {
            "buffer" : 0,
            "byteLength" : 10032,
            "byteOffset" : 27088
        },
        {
            "buffer" : 0,
            "byteLength" : 10032,
            "byteOffset" : 37120
        },
        {
            "buffer" : 0,
            "byteLength" : 6688,
            "byteOffset" : 47152
        },
        {
            "buffer" : 0,
            "byteLength" : 2520,
            "byteOffset" : 53840
        }
    ],
    "buffers" : [
        {
            "byteLength" : 56360,
            "uri" : "data:application/octet-stream;base64,"
        }
    ]
}
