{
    "asset" : {
        "generator" : "Khronos glTF Blender I/O v1.1.46",
        "version" : "2.0"
    },
    "scene" : 0,
    "scenes" : [
        {
            "extras" : {
                "glTF2ExportSettings" : {
                    "export_apply" : 0,
                    "export_cameras" : 0,
                    "export_extras" : 1,
                    "export_format" : "GLTF_EMBEDDED",
                    "export_selected" : 1,
                    "export_yup" : 0
                }
            },
            "name" : "Scene",
            "nodes" : [
                0,
                1,
                2
            ]
        }
    ],
    "nodes" : [
        {
            "mesh" : 0,
            "name" : "Straight_Surrounding",
            "scale" : [
                -7.94923734664917,
                -7.94923734664917,
                -7.94923734664917
            ]
        },
        {
            "mesh" : 1,
            "name" : "Straight_Street",
            "scale" : [
                -7.94923734664917,
                -7.94923734664917,
                -7.94923734664917
            ]
        },
        {
            "mesh" : 2,
            "name" : "Straight_Sidewalk",
            "scale" : [
                -7.94923734664917,
                -7.94923734664917,
                -7.94923734664917
            ]
        }
    ],
    "materials" : [
        {
            "doubleSided" : true,
            "emissiveFactor" : [
                0,
                0,
                0
            ],
            "name" : "Stra\u00dfe",
            "pbrMetallicRoughness" : {
                "baseColorTexture" : {
                    "index" : 0,
                    "texCoord" : 0
                },
                "metallicFactor" : 0,
                "roughnessFactor" : 1
            }
        }
    ],
    "meshes" : [
        {
            "name" : "Plane.002",
            "primitives" : [
                {
                    "attributes" : {
                        "POSITION" : 0,
                        "NORMAL" : 1,
                        "TEXCOORD_0" : 2
                    },
                    "indices" : 3,
                    "material" : 0
                }
            ]
        },
        {
            "name" : "Plane.012",
            "primitives" : [
                {
                    "attributes" : {
                        "POSITION" : 4,
                        "NORMAL" : 5,
                        "TEXCOORD_0" : 6
                    },
                    "indices" : 7,
                    "material" : 0
                }
            ]
        },
        {
            "name" : "Plane.013",
            "primitives" : [
                {
                    "attributes" : {
                        "POSITION" : 8,
                        "NORMAL" : 9,
                        "TEXCOORD_0" : 10
                    },
                    "indices" : 11,
                    "material" : 0
                }
            ]
        }
    ],
    "textures" : [
        {
            "source" : 0
        }
    ],
    "images" : [
        {
            "bufferView" : 4,
            "mimeType" : "image/png",
            "name" : "Gerade Stra\u00dfe mit B\u00fcrgersteig_Textur"
        }
    ],
    "accessors" : [
        {
            "bufferView" : 0,
            "componentType" : 5126,
            "count" : 32,
            "max" : [
                1.0062625408172607,
                1.006265640258789,
                -1.8663826040210552e-10
            ],
            "min" : [
                -1.0062625408172607,
                -1.006265640258789,
                -0.0346517488360405
            ],
            "type" : "VEC3"
        },
        {
            "bufferView" : 1,
            "componentType" : 5126,
            "count" : 32,
            "type" : "VEC3"
        },
        {
            "bufferView" : 2,
            "componentType" : 5126,
            "count" : 32,
            "type" : "VEC2"
        },
        {
            "bufferView" : 3,
            "componentType" : 5123,
            "count" : 48,
            "type" : "SCALAR"
        },
        {
            "bufferView" : 5,
            "componentType" : 5126,
            "count" : 4,
            "max" : [
                1.0062625408172607,
                0.3347717821598053,
                -1.8663826040210552e-10
            ],
            "min" : [
                -1.0062625408172607,
                -0.3347717821598053,
                -1.8663826040210552e-10
            ],
            "type" : "VEC3"
        },
        {
            "bufferView" : 6,
            "componentType" : 5126,
            "count" : 4,
            "type" : "VEC3"
        },
        {
            "bufferView" : 7,
            "componentType" : 5126,
            "count" : 4,
            "type" : "VEC2"
        },
        {
            "bufferView" : 8,
            "componentType" : 5123,
            "count" : 6,
            "type" : "SCALAR"
        },
        {
            "bufferView" : 9,
            "componentType" : 5126,
            "count" : 44,
            "max" : [
                1.0062625408172607,
                0.5812907218933105,
                -1.8663826040210552e-10
            ],
            "min" : [
                -1.0062625408172607,
                -0.5812907218933105,
                -0.0346517488360405
            ],
            "type" : "VEC3"
        },
        {
            "bufferView" : 10,
            "componentType" : 5126,
            "count" : 44,
            "type" : "VEC3"
        },
        {
            "bufferView" : 11,
            "componentType" : 5126,
            "count" : 44,
            "type" : "VEC2"
        },
        {
            "bufferView" : 12,
            "componentType" : 5123,
            "count" : 72,
            "type" : "SCALAR"
        }
    ],
    "bufferViews" : [
        {
            "buffer" : 0,
            "byteLength" : 384,
            "byteOffset" : 0
        },
        {
            "buffer" : 0,
            "byteLength" : 384,
            "byteOffset" : 384
        },
        {
            "buffer" : 0,
            "byteLength" : 256,
            "byteOffset" : 768
        },
        {
            "buffer" : 0,
            "byteLength" : 96,
            "byteOffset" : 1024
        },
        {
            "buffer" : 0,
            "byteLength" : 21591,
            "byteOffset" : 1120
        },
        {
            "buffer" : 0,
            "byteLength" : 48,
            "byteOffset" : 22712
        },
        {
            "buffer" : 0,
            "byteLength" : 48,
            "byteOffset" : 22760
        },
        {
            "buffer" : 0,
            "byteLength" : 32,
            "byteOffset" : 22808
        },
        {
            "buffer" : 0,
            "byteLength" : 12,
            "byteOffset" : 22840
        },
        {
            "buffer" : 0,
            "byteLength" : 528,
            "byteOffset" : 22852
        },
        {
            "buffer" : 0,
            "byteLength" : 528,
            "byteOffset" : 23380
        },
        {
            "buffer" : 0,
            "byteLength" : 352,
            "byteOffset" : 23908
        },
        {
            "buffer" : 0,
            "byteLength" : 144,
            "byteOffset" : 24260
        }
    ],
    "buffers" : [
        {
            "byteLength" : 24404,
            "uri" : "data:application/octet-stream;base64,"
        }
    ]
}
