{
    "asset" : {
        "generator" : "Khronos glTF Blender I/O v1.1.46",
        "version" : "2.0"
    },
    "scene" : 0,
    "scenes" : [
        {
            "extras" : {
                "glTF2ExportSettings" : {
                    "export_apply" : 0,
                    "export_cameras" : 0,
                    "export_extras" : 1,
                    "export_format" : "GLTF_EMBEDDED",
                    "export_selected" : 1,
                    "export_yup" : 0
                }
            },
            "name" : "Scene",
            "nodes" : [
                0,
                1,
                2
            ]
        }
    ],
    "nodes" : [
        {
            "mesh" : 0,
            "name" : "T_Cross_Surrounding",
            "rotation" : [
                0,
                0,
                0.7071065902709961,
                -0.7071069478988647
            ],
            "scale" : [
                -7.94923734664917,
                -7.94923734664917,
                -7.94923734664917
            ]
        },
        {
            "mesh" : 1,
            "name" : "T_Cross_Sidewalk",
            "rotation" : [
                0,
                0,
                0.7071065902709961,
                -0.7071069478988647
            ],
            "scale" : [
                -7.94923734664917,
                -7.94923734664917,
                -7.94923734664917
            ]
        },
        {
            "mesh" : 2,
            "name" : "T_Cross_Street",
            "rotation" : [
                0,
                0,
                0.7071065902709961,
                -0.7071069478988647
            ],
            "scale" : [
                -7.94923734664917,
                -7.94923734664917,
                -7.94923734664917
            ]
        }
    ],
    "materials" : [
        {
            "doubleSided" : true,
            "emissiveFactor" : [
                0,
                0,
                0
            ],
            "name" : "Stra\u00dfe.001",
            "pbrMetallicRoughness" : {
                "baseColorTexture" : {
                    "index" : 0,
                    "texCoord" : 0
                },
                "metallicFactor" : 0,
                "roughnessFactor" : 0.5
            }
        }
    ],
    "meshes" : [
        {
            "name" : "Plane.005",
            "primitives" : [
                {
                    "attributes" : {
                        "POSITION" : 0,
                        "NORMAL" : 1,
                        "TEXCOORD_0" : 2
                    },
                    "indices" : 3,
                    "material" : 0
                }
            ]
        },
        {
            "name" : "Plane.009",
            "primitives" : [
                {
                    "attributes" : {
                        "POSITION" : 4,
                        "NORMAL" : 5,
                        "TEXCOORD_0" : 6
                    },
                    "indices" : 7,
                    "material" : 0
                }
            ]
        },
        {
            "name" : "Plane.011",
            "primitives" : [
                {
                    "attributes" : {
                        "POSITION" : 8,
                        "NORMAL" : 9,
                        "TEXCOORD_0" : 10
                    },
                    "indices" : 11,
                    "material" : 0
                }
            ]
        }
    ],
    "textures" : [
        {
            "source" : 0
        }
    ],
    "images" : [
        {
            "bufferView" : 4,
            "mimeType" : "image/png",
            "name" : "Gerade Stra\u00dfe mit B\u00fcrgersteig_Textur.png"
        }
    ],
    "accessors" : [
        {
            "bufferView" : 0,
            "componentType" : 5126,
            "count" : 120,
            "max" : [
                1.0062625408172607,
                1.006265640258789,
                -1.8663826040210552e-10
            ],
            "min" : [
                -1.0062625408172607,
                -1.006265640258789,
                -0.03466304764151573
            ],
            "type" : "VEC3"
        },
        {
            "bufferView" : 1,
            "componentType" : 5126,
            "count" : 120,
            "type" : "VEC3"
        },
        {
            "bufferView" : 2,
            "componentType" : 5126,
            "count" : 120,
            "type" : "VEC2"
        },
        {
            "bufferView" : 3,
            "componentType" : 5123,
            "count" : 300,
            "type" : "SCALAR"
        },
        {
            "bufferView" : 5,
            "componentType" : 5126,
            "count" : 926,
            "max" : [
                1.0062625408172607,
                0.5812907218933105,
                3.725290298461914e-09
            ],
            "min" : [
                -1.0062625408172607,
                -1.006265640258789,
                -0.03466304764151573
            ],
            "type" : "VEC3"
        },
        {
            "bufferView" : 6,
            "componentType" : 5126,
            "count" : 926,
            "type" : "VEC3"
        },
        {
            "bufferView" : 7,
            "componentType" : 5126,
            "count" : 926,
            "type" : "VEC2"
        },
        {
            "bufferView" : 8,
            "componentType" : 5123,
            "count" : 1584,
            "type" : "SCALAR"
        },
        {
            "bufferView" : 9,
            "componentType" : 5126,
            "count" : 91,
            "max" : [
                1.0062625408172607,
                0.3347717523574829,
                3.725290298461914e-09
            ],
            "min" : [
                -1.0062625408172607,
                -1.006265640258789,
                -1.8663826040210552e-10
            ],
            "type" : "VEC3"
        },
        {
            "bufferView" : 10,
            "componentType" : 5126,
            "count" : 91,
            "type" : "VEC3"
        },
        {
            "bufferView" : 11,
            "componentType" : 5126,
            "count" : 91,
            "type" : "VEC2"
        },
        {
            "bufferView" : 12,
            "componentType" : 5123,
            "count" : 267,
            "type" : "SCALAR"
        }
    ],
    "bufferViews" : [
        {
            "buffer" : 0,
            "byteLength" : 1440,
            "byteOffset" : 0
        },
        {
            "buffer" : 0,
            "byteLength" : 1440,
            "byteOffset" : 1440
        },
        {
            "buffer" : 0,
            "byteLength" : 960,
            "byteOffset" : 2880
        },
        {
            "buffer" : 0,
            "byteLength" : 600,
            "byteOffset" : 3840
        },
        {
            "buffer" : 0,
            "byteLength" : 21591,
            "byteOffset" : 4440
        },
        {
            "buffer" : 0,
            "byteLength" : 11112,
            "byteOffset" : 26032
        },
        {
            "buffer" : 0,
            "byteLength" : 11112,
            "byteOffset" : 37144
        },
        {
            "buffer" : 0,
            "byteLength" : 7408,
            "byteOffset" : 48256
        },
        {
            "buffer" : 0,
            "byteLength" : 3168,
            "byteOffset" : 55664
        },
        {
            "buffer" : 0,
            "byteLength" : 1092,
            "byteOffset" : 58832
        },
        {
            "buffer" : 0,
            "byteLength" : 1092,
            "byteOffset" : 59924
        },
        {
            "buffer" : 0,
            "byteLength" : 728,
            "byteOffset" : 61016
        },
        {
            "buffer" : 0,
            "byteLength" : 534,
            "byteOffset" : 61744
        }
    ],
    "buffers" : [
        {
            "byteLength" : 62280,
            "uri" : "data:application/octet-stream;base64,"
        }
    ]
}
