{
    "asset" : {
        "generator" : "Khronos glTF Blender I/O v1.1.46",
        "version" : "2.0"
    },
    "scene" : 0,
    "scenes" : [
        {
            "extras" : {
                "glTF2ExportSettings" : {
                    "export_apply" : 0,
                    "export_cameras" : 0,
                    "export_extras" : 1,
                    "export_format" : "GLTF_EMBEDDED",
                    "export_selected" : 1,
                    "export_yup" : 0
                }
            },
            "name" : "Scene",
            "nodes" : [
                0,
                1,
                2,
                3,
                4
            ]
        }
    ],
    "nodes" : [
        {
            "mesh" : 0,
            "name" : "Surroundings"
        },
        {
            "mesh" : 1,
            "name" : "Bungalow_Rest"
        },
        {
            "mesh" : 2,
            "name" : "Bungalow_Dach"
        },
        {
            "mesh" : 3,
            "name" : "Bungalow_Wand"
        },
        {
            "mesh" : 4,
            "name" : "Bungalow_Surrounding"
        }
    ],
    "materials" : [
        {
            "doubleSided" : true,
            "emissiveFactor" : [
                0,
                0,
                0
            ],
            "name" : "Material.012",
            "pbrMetallicRoughness" : {
                "baseColorTexture" : {
                    "index" : 0,
                    "texCoord" : 0
                },
                "metallicFactor" : 0,
                "roughnessFactor" : 1
            }
        }
    ],
    "meshes" : [
        {
            "name" : "Plane.016",
            "primitives" : [
                {
                    "attributes" : {
                        "POSITION" : 0,
                        "NORMAL" : 1,
                        "TEXCOORD_0" : 2
                    },
                    "indices" : 3
                }
            ]
        },
        {
            "name" : "Plane.024",
            "primitives" : [
                {
                    "attributes" : {
                        "POSITION" : 4,
                        "NORMAL" : 5,
                        "TEXCOORD_0" : 6
                    },
                    "indices" : 7,
                    "material" : 0
                }
            ]
        },
        {
            "name" : "Plane.025",
            "primitives" : [
                {
                    "attributes" : {
                        "POSITION" : 8,
                        "NORMAL" : 9,
                        "TEXCOORD_0" : 10
                    },
                    "indices" : 11,
                    "material" : 0
                }
            ]
        },
        {
            "name" : "Plane.026",
            "primitives" : [
                {
                    "attributes" : {
                        "POSITION" : 12,
                        "NORMAL" : 13,
                        "TEXCOORD_0" : 14
                    },
                    "indices" : 15,
                    "material" : 0
                }
            ]
        },
        {
            "name" : "Plane.035",
            "primitives" : [
                {
                    "attributes" : {
                        "POSITION" : 16,
                        "NORMAL" : 17,
                        "TEXCOORD_0" : 18
                    },
                    "indices" : 19,
                    "material" : 0
                }
            ]
        }
    ],
    "textures" : [
        {
            "source" : 0
        }
    ],
    "images" : [
        {
            "bufferView" : 8,
            "mimeType" : "image/png",
            "name" : "Bungalow_UV.psd"
        }
    ],
    "accessors" : [
        {
            "bufferView" : 0,
            "componentType" : 5126,
            "count" : 24,
            "max" : [
                8,
                8,
                0.2770000100135803
            ],
            "min" : [
                -8,
                -8,
                0
            ],
            "type" : "VEC3"
        },
        {
            "bufferView" : 1,
            "componentType" : 5126,
            "count" : 24,
            "type" : "VEC3"
        },
        {
            "bufferView" : 2,
            "componentType" : 5126,
            "count" : 24,
            "type" : "VEC2"
        },
        {
            "bufferView" : 3,
            "componentType" : 5123,
            "count" : 36,
            "type" : "SCALAR"
        },
        {
            "bufferView" : 4,
            "componentType" : 5126,
            "count" : 24,
            "max" : [
                5.911694049835205,
                -4.918686866760254,
                2.5
            ],
            "min" : [
                -5.911694049835205,
                -4.918686866760254,
                0.2770000100135803
            ],
            "type" : "VEC3"
        },
        {
            "bufferView" : 5,
            "componentType" : 5126,
            "count" : 24,
            "type" : "VEC3"
        },
        {
            "bufferView" : 6,
            "componentType" : 5126,
            "count" : 24,
            "type" : "VEC2"
        },
        {
            "bufferView" : 7,
            "componentType" : 5123,
            "count" : 42,
            "type" : "SCALAR"
        },
        {
            "bufferView" : 9,
            "componentType" : 5126,
            "count" : 56,
            "max" : [
                8.964010238647461,
                8.718076705932617,
                4.5
            ],
            "min" : [
                -8.964010238647461,
                -6.54926872253418,
                2.7828803062438965
            ],
            "type" : "VEC3"
        },
        {
            "bufferView" : 10,
            "componentType" : 5126,
            "count" : 56,
            "type" : "VEC3"
        },
        {
            "bufferView" : 11,
            "componentType" : 5126,
            "count" : 56,
            "type" : "VEC2"
        },
        {
            "bufferView" : 12,
            "componentType" : 5123,
            "count" : 114,
            "type" : "SCALAR"
        },
        {
            "bufferView" : 13,
            "componentType" : 5126,
            "count" : 176,
            "max" : [
                7.225403785705566,
                7.237494945526123,
                3.2769999504089355
            ],
            "min" : [
                -7.225403785705566,
                -5.0686869621276855,
                0.27699995040893555
            ],
            "type" : "VEC3"
        },
        {
            "bufferView" : 14,
            "componentType" : 5126,
            "count" : 176,
            "type" : "VEC3"
        },
        {
            "bufferView" : 15,
            "componentType" : 5126,
            "count" : 176,
            "type" : "VEC2"
        },
        {
            "bufferView" : 16,
            "componentType" : 5123,
            "count" : 342,
            "type" : "SCALAR"
        },
        {
            "bufferView" : 17,
            "componentType" : 5126,
            "count" : 58,
            "max" : [
                8,
                8,
                0.2770000100135803
            ],
            "min" : [
                -8,
                -8,
                0
            ],
            "type" : "VEC3"
        },
        {
            "bufferView" : 18,
            "componentType" : 5126,
            "count" : 58,
            "type" : "VEC3"
        },
        {
            "bufferView" : 19,
            "componentType" : 5126,
            "count" : 58,
            "type" : "VEC2"
        },
        {
            "bufferView" : 20,
            "componentType" : 5123,
            "count" : 114,
            "type" : "SCALAR"
        }
    ],
    "bufferViews" : [
        {
            "buffer" : 0,
            "byteLength" : 288,
            "byteOffset" : 0
        },
        {
            "buffer" : 0,
            "byteLength" : 288,
            "byteOffset" : 288
        },
        {
            "buffer" : 0,
            "byteLength" : 192,
            "byteOffset" : 576
        },
        {
            "buffer" : 0,
            "byteLength" : 72,
            "byteOffset" : 768
        },
        {
            "buffer" : 0,
            "byteLength" : 288,
            "byteOffset" : 840
        },
        {
            "buffer" : 0,
            "byteLength" : 288,
            "byteOffset" : 1128
        },
        {
            "buffer" : 0,
            "byteLength" : 192,
            "byteOffset" : 1416
        },
        {
            "buffer" : 0,
            "byteLength" : 84,
            "byteOffset" : 1608
        },
        {
            "buffer" : 0,
            "byteLength" : 156215,
            "byteOffset" : 1692
        },
        {
            "buffer" : 0,
            "byteLength" : 672,
            "byteOffset" : 157908
        },
        {
            "buffer" : 0,
            "byteLength" : 672,
            "byteOffset" : 158580
        },
        {
            "buffer" : 0,
            "byteLength" : 448,
            "byteOffset" : 159252
        },
        {
            "buffer" : 0,
            "byteLength" : 228,
            "byteOffset" : 159700
        },
        {
            "buffer" : 0,
            "byteLength" : 2112,
            "byteOffset" : 159928
        },
        {
            "buffer" : 0,
            "byteLength" : 2112,
            "byteOffset" : 162040
        },
        {
            "buffer" : 0,
            "byteLength" : 1408,
            "byteOffset" : 164152
        },
        {
            "buffer" : 0,
            "byteLength" : 684,
            "byteOffset" : 165560
        },
        {
            "buffer" : 0,
            "byteLength" : 696,
            "byteOffset" : 166244
        },
        {
            "buffer" : 0,
            "byteLength" : 696,
            "byteOffset" : 166940
        },
        {
            "buffer" : 0,
            "byteLength" : 464,
            "byteOffset" : 167636
        },
        {
            "buffer" : 0,
            "byteLength" : 228,
            "byteOffset" : 168100
        }
    ],
    "buffers" : [
        {
            "byteLength" : 168328,
            "uri" : "data:application/octet-stream;base64,"
        }
    ]
}
