{
    "asset" : {
        "generator" : "Khronos glTF Blender I/O v1.1.46",
        "version" : "2.0"
    },
    "scene" : 0,
    "scenes" : [
        {
            "extras" : {
                "glTF2ExportSettings" : {
                    "export_apply" : 0,
                    "export_cameras" : 0,
                    "export_extras" : 1,
                    "export_format" : "GLTF_EMBEDDED",
                    "export_selected" : 1,
                    "export_yup" : 0
                }
            },
            "name" : "Scene",
            "nodes" : [
                0,
                1,
                2,
                3,
                4
            ]
        }
    ],
    "nodes" : [
        {
            "mesh" : 0,
            "name" : "Surroundings"
        },
        {
            "mesh" : 1,
            "name" : "Simple_House_Rest"
        },
        {
            "mesh" : 2,
            "name" : "Simple_House_Dach"
        },
        {
            "mesh" : 3,
            "name" : "Simple_House_Wand"
        },
        {
            "mesh" : 4,
            "name" : "Simple_House_Surrounding"
        }
    ],
    "materials" : [
        {
            "doubleSided" : true,
            "emissiveFactor" : [
                0,
                0,
                0
            ],
            "name" : "Simons_Textur.001",
            "pbrMetallicRoughness" : {
                "baseColorTexture" : {
                    "index" : 0,
                    "texCoord" : 0
                },
                "metallicFactor" : 0,
                "roughnessFactor" : 1
            }
        }
    ],
    "meshes" : [
        {
            "name" : "Plane.016",
            "primitives" : [
                {
                    "attributes" : {
                        "POSITION" : 0,
                        "NORMAL" : 1,
                        "TEXCOORD_0" : 2
                    },
                    "indices" : 3
                }
            ]
        },
        {
            "name" : "Plane.032",
            "primitives" : [
                {
                    "attributes" : {
                        "POSITION" : 4,
                        "NORMAL" : 5,
                        "TEXCOORD_0" : 6
                    },
                    "indices" : 7,
                    "material" : 0
                }
            ]
        },
        {
            "name" : "Plane.033",
            "primitives" : [
                {
                    "attributes" : {
                        "POSITION" : 8,
                        "NORMAL" : 9,
                        "TEXCOORD_0" : 10
                    },
                    "indices" : 11,
                    "material" : 0
                }
            ]
        },
        {
            "name" : "Plane.034",
            "primitives" : [
                {
                    "attributes" : {
                        "POSITION" : 12,
                        "NORMAL" : 13,
                        "TEXCOORD_0" : 14
                    },
                    "indices" : 15,
                    "material" : 0
                }
            ]
        },
        {
            "name" : "Plane.038",
            "primitives" : [
                {
                    "attributes" : {
                        "POSITION" : 16,
                        "NORMAL" : 17,
                        "TEXCOORD_0" : 18
                    },
                    "indices" : 19,
                    "material" : 0
                }
            ]
        }
    ],
    "textures" : [
        {
            "source" : 0
        }
    ],
    "images" : [
        {
            "bufferView" : 8,
            "mimeType" : "image/png",
            "name" : "Simplest_House_Textur.png"
        }
    ],
    "accessors" : [
        {
            "bufferView" : 0,
            "componentType" : 5126,
            "count" : 24,
            "max" : [
                8,
                8,
                0.2770000100135803
            ],
            "min" : [
                -8,
                -8,
                0
            ],
            "type" : "VEC3"
        },
        {
            "bufferView" : 1,
            "componentType" : 5126,
            "count" : 24,
            "type" : "VEC3"
        },
        {
            "bufferView" : 2,
            "componentType" : 5126,
            "count" : 24,
            "type" : "VEC2"
        },
        {
            "bufferView" : 3,
            "componentType" : 5123,
            "count" : 36,
            "type" : "SCALAR"
        },
        {
            "bufferView" : 4,
            "componentType" : 5126,
            "count" : 64,
            "max" : [
                5.3743720054626465,
                -2.1085855960845947,
                5
            ],
            "min" : [
                -5.3743720054626465,
                -3.8786463737487793,
                0.2770000100135803
            ],
            "type" : "VEC3"
        },
        {
            "bufferView" : 5,
            "componentType" : 5126,
            "count" : 64,
            "type" : "VEC3"
        },
        {
            "bufferView" : 6,
            "componentType" : 5126,
            "count" : 64,
            "type" : "VEC2"
        },
        {
            "bufferView" : 7,
            "componentType" : 5123,
            "count" : 102,
            "type" : "SCALAR"
        },
        {
            "bufferView" : 9,
            "componentType" : 5126,
            "count" : 48,
            "max" : [
                8.052165031433105,
                8.298309326171875,
                8.053747177124023
            ],
            "min" : [
                -8.052165031433105,
                -4.101615905761719,
                4.896332740783691
            ],
            "type" : "VEC3"
        },
        {
            "bufferView" : 10,
            "componentType" : 5126,
            "count" : 48,
            "type" : "VEC3"
        },
        {
            "bufferView" : 11,
            "componentType" : 5126,
            "count" : 48,
            "type" : "VEC2"
        },
        {
            "bufferView" : 12,
            "componentType" : 5123,
            "count" : 72,
            "type" : "SCALAR"
        },
        {
            "bufferView" : 13,
            "componentType" : 5126,
            "count" : 380,
            "max" : [
                6.592965126037598,
                6.592965126037598,
                8.053747177124023
            ],
            "min" : [
                -6.592965126037598,
                -3.8786463737487793,
                0.2770000100135803
            ],
            "type" : "VEC3"
        },
        {
            "bufferView" : 14,
            "componentType" : 5126,
            "count" : 380,
            "type" : "VEC3"
        },
        {
            "bufferView" : 15,
            "componentType" : 5126,
            "count" : 380,
            "type" : "VEC2"
        },
        {
            "bufferView" : 16,
            "componentType" : 5123,
            "count" : 648,
            "type" : "SCALAR"
        },
        {
            "bufferView" : 17,
            "componentType" : 5126,
            "count" : 61,
            "max" : [
                8,
                8,
                0.2770000100135803
            ],
            "min" : [
                -8,
                -8,
                0
            ],
            "type" : "VEC3"
        },
        {
            "bufferView" : 18,
            "componentType" : 5126,
            "count" : 61,
            "type" : "VEC3"
        },
        {
            "bufferView" : 19,
            "componentType" : 5126,
            "count" : 61,
            "type" : "VEC2"
        },
        {
            "bufferView" : 20,
            "componentType" : 5123,
            "count" : 150,
            "type" : "SCALAR"
        }
    ],
    "bufferViews" : [
        {
            "buffer" : 0,
            "byteLength" : 288,
            "byteOffset" : 0
        },
        {
            "buffer" : 0,
            "byteLength" : 288,
            "byteOffset" : 288
        },
        {
            "buffer" : 0,
            "byteLength" : 192,
            "byteOffset" : 576
        },
        {
            "buffer" : 0,
            "byteLength" : 72,
            "byteOffset" : 768
        },
        {
            "buffer" : 0,
            "byteLength" : 768,
            "byteOffset" : 840
        },
        {
            "buffer" : 0,
            "byteLength" : 768,
            "byteOffset" : 1608
        },
        {
            "buffer" : 0,
            "byteLength" : 512,
            "byteOffset" : 2376
        },
        {
            "buffer" : 0,
            "byteLength" : 204,
            "byteOffset" : 2888
        },
        {
            "buffer" : 0,
            "byteLength" : 71077,
            "byteOffset" : 3092
        },
        {
            "buffer" : 0,
            "byteLength" : 576,
            "byteOffset" : 74172
        },
        {
            "buffer" : 0,
            "byteLength" : 576,
            "byteOffset" : 74748
        },
        {
            "buffer" : 0,
            "byteLength" : 384,
            "byteOffset" : 75324
        },
        {
            "buffer" : 0,
            "byteLength" : 144,
            "byteOffset" : 75708
        },
        {
            "buffer" : 0,
            "byteLength" : 4560,
            "byteOffset" : 75852
        },
        {
            "buffer" : 0,
            "byteLength" : 4560,
            "byteOffset" : 80412
        },
        {
            "buffer" : 0,
            "byteLength" : 3040,
            "byteOffset" : 84972
        },
        {
            "buffer" : 0,
            "byteLength" : 1296,
            "byteOffset" : 88012
        },
        {
            "buffer" : 0,
            "byteLength" : 732,
            "byteOffset" : 89308
        },
        {
            "buffer" : 0,
            "byteLength" : 732,
            "byteOffset" : 90040
        },
        {
            "buffer" : 0,
            "byteLength" : 488,
            "byteOffset" : 90772
        },
        {
            "buffer" : 0,
            "byteLength" : 300,
            "byteOffset" : 91260
        }
    ],
    "buffers" : [
        {
            "byteLength" : 91560,
            "uri" : "data:application/octet-stream;base64,"
        }
    ]
}
