{
    "asset" : {
        "generator" : "Khronos glTF Blender I/O v1.1.46",
        "version" : "2.0"
    },
    "scene" : 0,
    "scenes" : [
        {
            "extras" : {
                "glTF2ExportSettings" : {
                    "export_apply" : 0,
                    "export_cameras" : 0,
                    "export_extras" : 1,
                    "export_format" : "GLTF_EMBEDDED",
                    "export_selected" : 1,
                    "export_yup" : 0
                }
            },
            "name" : "Scene",
            "nodes" : [
                0,
                1,
                2,
                3
            ]
        }
    ],
    "nodes" : [
        {
            "mesh" : 0,
            "name" : "Doppelhaus_Rest",
            "scale" : [
                2,
                1,
                1
            ]
        },
        {
            "mesh" : 1,
            "name" : "Doppelhaus_Dach",
            "scale" : [
                2,
                1,
                1
            ]
        },
        {
            "mesh" : 2,
            "name" : "Doppelhaus_Wand",
            "scale" : [
                2,
                1,
                1
            ]
        },
        {
            "mesh" : 3,
            "name" : "Doppelhaus_Surrounding",
            "scale" : [
                2,
                1,
                1
            ]
        }
    ],
    "materials" : [
        {
            "doubleSided" : true,
            "emissiveFactor" : [
                0,
                0,
                0
            ],
            "name" : "Material.013",
            "pbrMetallicRoughness" : {
                "baseColorTexture" : {
                    "index" : 0,
                    "texCoord" : 0
                },
                "metallicFactor" : 0,
                "roughnessFactor" : 0.5
            }
        }
    ],
    "meshes" : [
        {
            "name" : "Plane.027",
            "primitives" : [
                {
                    "attributes" : {
                        "POSITION" : 0,
                        "NORMAL" : 1,
                        "TEXCOORD_0" : 2
                    },
                    "indices" : 3,
                    "material" : 0
                }
            ]
        },
        {
            "name" : "Plane.028",
            "primitives" : [
                {
                    "attributes" : {
                        "POSITION" : 4,
                        "NORMAL" : 5,
                        "TEXCOORD_0" : 6
                    },
                    "indices" : 7,
                    "material" : 0
                }
            ]
        },
        {
            "name" : "Plane.029",
            "primitives" : [
                {
                    "attributes" : {
                        "POSITION" : 8,
                        "NORMAL" : 9,
                        "TEXCOORD_0" : 10
                    },
                    "indices" : 11,
                    "material" : 0
                }
            ]
        },
        {
            "name" : "Plane.036",
            "primitives" : [
                {
                    "attributes" : {
                        "POSITION" : 12,
                        "NORMAL" : 13,
                        "TEXCOORD_0" : 14
                    },
                    "indices" : 15,
                    "material" : 0
                }
            ]
        }
    ],
    "textures" : [
        {
            "source" : 0
        }
    ],
    "images" : [
        {
            "bufferView" : 4,
            "mimeType" : "image/png",
            "name" : "Doppelhaus_Textur.png"
        }
    ],
    "accessors" : [
        {
            "bufferView" : 0,
            "componentType" : 5126,
            "count" : 60,
            "max" : [
                3.981991767883301,
                -3.500547170639038,
                7.028675556182861
            ],
            "min" : [
                -3.981991767883301,
                -3.500547170639038,
                0.2770000100135803
            ],
            "type" : "VEC3"
        },
        {
            "bufferView" : 1,
            "componentType" : 5126,
            "count" : 60,
            "type" : "VEC3"
        },
        {
            "bufferView" : 2,
            "componentType" : 5126,
            "count" : 60,
            "type" : "VEC2"
        },
        {
            "bufferView" : 3,
            "componentType" : 5123,
            "count" : 90,
            "type" : "SCALAR"
        },
        {
            "bufferView" : 5,
            "componentType" : 5126,
            "count" : 46,
            "max" : [
                4.976565361022949,
                6.2525835037231445,
                9.260810852050781
            ],
            "min" : [
                -4.976565361022949,
                -3.700547218322754,
                5.15518856048584
            ],
            "type" : "VEC3"
        },
        {
            "bufferView" : 6,
            "componentType" : 5126,
            "count" : 46,
            "type" : "VEC3"
        },
        {
            "bufferView" : 7,
            "componentType" : 5126,
            "count" : 46,
            "type" : "VEC2"
        },
        {
            "bufferView" : 8,
            "componentType" : 5123,
            "count" : 84,
            "type" : "SCALAR"
        },
        {
            "bufferView" : 9,
            "componentType" : 5126,
            "count" : 480,
            "max" : [
                4.976565361022949,
                6.2525835037231445,
                7.960968494415283
            ],
            "min" : [
                -4.976565361022949,
                -3.700547218322754,
                0.2770000100135803
            ],
            "type" : "VEC3"
        },
        {
            "bufferView" : 10,
            "componentType" : 5126,
            "count" : 480,
            "type" : "VEC3"
        },
        {
            "bufferView" : 11,
            "componentType" : 5126,
            "count" : 480,
            "type" : "VEC2"
        },
        {
            "bufferView" : 12,
            "componentType" : 5123,
            "count" : 873,
            "type" : "SCALAR"
        },
        {
            "bufferView" : 13,
            "componentType" : 5126,
            "count" : 56,
            "max" : [
                8,
                8,
                0.2770000100135803
            ],
            "min" : [
                -8,
                -8,
                0
            ],
            "type" : "VEC3"
        },
        {
            "bufferView" : 14,
            "componentType" : 5126,
            "count" : 56,
            "type" : "VEC3"
        },
        {
            "bufferView" : 15,
            "componentType" : 5126,
            "count" : 56,
            "type" : "VEC2"
        },
        {
            "bufferView" : 16,
            "componentType" : 5123,
            "count" : 102,
            "type" : "SCALAR"
        }
    ],
    "bufferViews" : [
        {
            "buffer" : 0,
            "byteLength" : 720,
            "byteOffset" : 0
        },
        {
            "buffer" : 0,
            "byteLength" : 720,
            "byteOffset" : 720
        },
        {
            "buffer" : 0,
            "byteLength" : 480,
            "byteOffset" : 1440
        },
        {
            "buffer" : 0,
            "byteLength" : 180,
            "byteOffset" : 1920
        },
        {
            "buffer" : 0,
            "byteLength" : 108002,
            "byteOffset" : 2100
        },
        {
            "buffer" : 0,
            "byteLength" : 552,
            "byteOffset" : 110104
        },
        {
            "buffer" : 0,
            "byteLength" : 552,
            "byteOffset" : 110656
        },
        {
            "buffer" : 0,
            "byteLength" : 368,
            "byteOffset" : 111208
        },
        {
            "buffer" : 0,
            "byteLength" : 168,
            "byteOffset" : 111576
        },
        {
            "buffer" : 0,
            "byteLength" : 5760,
            "byteOffset" : 111744
        },
        {
            "buffer" : 0,
            "byteLength" : 5760,
            "byteOffset" : 117504
        },
        {
            "buffer" : 0,
            "byteLength" : 3840,
            "byteOffset" : 123264
        },
        {
            "buffer" : 0,
            "byteLength" : 1746,
            "byteOffset" : 127104
        },
        {
            "buffer" : 0,
            "byteLength" : 672,
            "byteOffset" : 128852
        },
        {
            "buffer" : 0,
            "byteLength" : 672,
            "byteOffset" : 129524
        },
        {
            "buffer" : 0,
            "byteLength" : 448,
            "byteOffset" : 130196
        },
        {
            "buffer" : 0,
            "byteLength" : 204,
            "byteOffset" : 130644
        }
    ],
    "buffers" : [
        {
            "byteLength" : 130848,
            "uri" : "data:application/octet-stream;base64,"
        }
    ]
}
