{
    "asset" : {
        "generator" : "Khronos glTF Blender I/O v1.1.46",
        "version" : "2.0"
    },
    "scene" : 0,
    "scenes" : [
        {
            "extras" : {
                "glTF2ExportSettings" : {
                    "export_apply" : 0,
                    "export_cameras" : 0,
                    "export_extras" : 1,
                    "export_format" : "GLTF_EMBEDDED",
                    "export_selected" : 1,
                    "export_yup" : 0
                }
            },
            "name" : "Scene",
            "nodes" : [
                0,
                1,
                2,
                3
            ]
        }
    ],
    "nodes" : [
        {
            "mesh" : 0,
            "name" : "Surroundings"
        },
        {
            "mesh" : 1,
            "name" : "Flachdach_Rest"
        },
        {
            "mesh" : 2,
            "name" : "Flachdach_Wand"
        },
        {
            "mesh" : 3,
            "name" : "Flachdach_Surrounding"
        }
    ],
    "materials" : [
        {
            "doubleSided" : true,
            "emissiveFactor" : [
                0,
                0,
                0
            ],
            "name" : "Material.014",
            "pbrMetallicRoughness" : {
                "baseColorTexture" : {
                    "index" : 0,
                    "texCoord" : 0
                },
                "metallicFactor" : 0,
                "roughnessFactor" : 1
            }
        }
    ],
    "meshes" : [
        {
            "name" : "Plane.016",
            "primitives" : [
                {
                    "attributes" : {
                        "POSITION" : 0,
                        "NORMAL" : 1,
                        "TEXCOORD_0" : 2
                    },
                    "indices" : 3
                }
            ]
        },
        {
            "name" : "Plane.030",
            "primitives" : [
                {
                    "attributes" : {
                        "POSITION" : 4,
                        "NORMAL" : 5,
                        "TEXCOORD_0" : 6
                    },
                    "indices" : 7,
                    "material" : 0
                }
            ]
        },
        {
            "name" : "Plane.031",
            "primitives" : [
                {
                    "attributes" : {
                        "POSITION" : 8,
                        "NORMAL" : 9,
                        "TEXCOORD_0" : 10
                    },
                    "indices" : 11,
                    "material" : 0
                }
            ]
        },
        {
            "name" : "Plane.037",
            "primitives" : [
                {
                    "attributes" : {
                        "POSITION" : 12,
                        "NORMAL" : 13,
                        "TEXCOORD_0" : 14
                    },
                    "indices" : 15,
                    "material" : 0
                }
            ]
        }
    ],
    "textures" : [
        {
            "source" : 0
        }
    ],
    "images" : [
        {
            "bufferView" : 8,
            "mimeType" : "image/png",
            "name" : "Flachdach_Textur.png"
        }
    ],
    "accessors" : [
        {
            "bufferView" : 0,
            "componentType" : 5126,
            "count" : 24,
            "max" : [
                8,
                8,
                0.2770000100135803
            ],
            "min" : [
                -8,
                -8,
                0
            ],
            "type" : "VEC3"
        },
        {
            "bufferView" : 1,
            "componentType" : 5126,
            "count" : 24,
            "type" : "VEC3"
        },
        {
            "bufferView" : 2,
            "componentType" : 5126,
            "count" : 24,
            "type" : "VEC2"
        },
        {
            "bufferView" : 3,
            "componentType" : 5123,
            "count" : 36,
            "type" : "SCALAR"
        },
        {
            "bufferView" : 4,
            "componentType" : 5126,
            "count" : 29,
            "max" : [
                -4.317968368530273,
                4.5,
                5.7270002365112305
            ],
            "min" : [
                -4.51796817779541,
                -5.300000190734863,
                0.2770000100135803
            ],
            "type" : "VEC3"
        },
        {
            "bufferView" : 5,
            "componentType" : 5126,
            "count" : 29,
            "type" : "VEC3"
        },
        {
            "bufferView" : 6,
            "componentType" : 5126,
            "count" : 29,
            "type" : "VEC2"
        },
        {
            "bufferView" : 7,
            "componentType" : 5123,
            "count" : 45,
            "type" : "SCALAR"
        },
        {
            "bufferView" : 9,
            "componentType" : 5126,
            "count" : 274,
            "max" : [
                4.239535331726074,
                5.573845863342285,
                6.427000045776367
            ],
            "min" : [
                -4.51796817779541,
                -5.9833526611328125,
                0.2770000100135803
            ],
            "type" : "VEC3"
        },
        {
            "bufferView" : 10,
            "componentType" : 5126,
            "count" : 274,
            "type" : "VEC3"
        },
        {
            "bufferView" : 11,
            "componentType" : 5126,
            "count" : 274,
            "type" : "VEC2"
        },
        {
            "bufferView" : 12,
            "componentType" : 5123,
            "count" : 492,
            "type" : "SCALAR"
        },
        {
            "bufferView" : 13,
            "componentType" : 5126,
            "count" : 115,
            "max" : [
                8,
                8,
                0.2770000100135803
            ],
            "min" : [
                -8,
                -8,
                0
            ],
            "type" : "VEC3"
        },
        {
            "bufferView" : 14,
            "componentType" : 5126,
            "count" : 115,
            "type" : "VEC3"
        },
        {
            "bufferView" : 15,
            "componentType" : 5126,
            "count" : 115,
            "type" : "VEC2"
        },
        {
            "bufferView" : 16,
            "componentType" : 5123,
            "count" : 240,
            "type" : "SCALAR"
        }
    ],
    "bufferViews" : [
        {
            "buffer" : 0,
            "byteLength" : 288,
            "byteOffset" : 0
        },
        {
            "buffer" : 0,
            "byteLength" : 288,
            "byteOffset" : 288
        },
        {
            "buffer" : 0,
            "byteLength" : 192,
            "byteOffset" : 576
        },
        {
            "buffer" : 0,
            "byteLength" : 72,
            "byteOffset" : 768
        },
        {
            "buffer" : 0,
            "byteLength" : 348,
            "byteOffset" : 840
        },
        {
            "buffer" : 0,
            "byteLength" : 348,
            "byteOffset" : 1188
        },
        {
            "buffer" : 0,
            "byteLength" : 232,
            "byteOffset" : 1536
        },
        {
            "buffer" : 0,
            "byteLength" : 90,
            "byteOffset" : 1768
        },
        {
            "buffer" : 0,
            "byteLength" : 30098,
            "byteOffset" : 1860
        },
        {
            "buffer" : 0,
            "byteLength" : 3288,
            "byteOffset" : 31960
        },
        {
            "buffer" : 0,
            "byteLength" : 3288,
            "byteOffset" : 35248
        },
        {
            "buffer" : 0,
            "byteLength" : 2192,
            "byteOffset" : 38536
        },
        {
            "buffer" : 0,
            "byteLength" : 984,
            "byteOffset" : 40728
        },
        {
            "buffer" : 0,
            "byteLength" : 1380,
            "byteOffset" : 41712
        },
        {
            "buffer" : 0,
            "byteLength" : 1380,
            "byteOffset" : 43092
        },
        {
            "buffer" : 0,
            "byteLength" : 920,
            "byteOffset" : 44472
        },
        {
            "buffer" : 0,
            "byteLength" : 480,
            "byteOffset" : 45392
        }
    ],
    "buffers" : [
        {
            "byteLength" : 45872,
            "uri" : "data:application/octet-stream;base64,"
        }
    ]
}
