{
    "asset" : {
        "generator" : "Khronos glTF Blender I/O v1.1.46",
        "version" : "2.0"
    },
    "scene" : 0,
    "scenes" : [
        {
            "extras" : {
                "glTF2ExportSettings" : {
                    "export_apply" : 0,
                    "export_cameras" : 0,
                    "export_colors" : 0,
                    "export_extras" : 1,
                    "export_format" : "GLTF_EMBEDDED",
                    "export_materials" : 0,
                    "export_normals" : 0,
                    "export_selected" : 1,
                    "export_texcoords" : 0,
                    "export_yup" : 0
                }
            },
            "name" : "Scene",
            "nodes" : [
                0,
                1,
                2,
                3,
                4,
                5,
                6,
                7,
                8,
                9,
                10,
                11,
                12,
                13
            ]
        }
    ],
    "nodes" : [
        {
            "mesh" : 0,
            "name" : "Car_Model",
            "scale" : [
                1.3423876762390137,
                1.3423876762390137,
                1.3423876762390137
            ],
            "translation" : [
                -2.5338022708892822,
                1.3551530838012695,
                0.2410491704940796
            ]
        },
        {
            "mesh" : 1,
            "name" : "Car_Wheel_F_R",
            "scale" : [
                1.3423876762390137,
                1.3423876762390137,
                1.3423876762390137
            ],
            "translation" : [
                -2.5338022708892822,
                1.3551530838012695,
                0.2410491704940796
            ]
        },
        {
            "mesh" : 2,
            "name" : "Car_Wheel_F_L",
            "scale" : [
                1.3423876762390137,
                1.3423876762390137,
                1.3423876762390137
            ],
            "translation" : [
                -2.5338022708892822,
                1.3551530838012695,
                0.2410491704940796
            ]
        },
        {
            "mesh" : 3,
            "name" : "Car_Wheel_B_L",
            "scale" : [
                1.3423876762390137,
                1.3423876762390137,
                1.3423876762390137
            ],
            "translation" : [
                -2.5338022708892822,
                1.3551530838012695,
                0.2410491704940796
            ]
        },
        {
            "mesh" : 4,
            "name" : "Car_Wheel_B_R",
            "scale" : [
                1.3423876762390137,
                1.3423876762390137,
                1.3423876762390137
            ],
            "translation" : [
                -2.5338022708892822,
                1.3551530838012695,
                0.2410491704940796
            ]
        },
        {
            "mesh" : 5,
            "name" : "Car_Front_Seats",
            "scale" : [
                1.3423876762390137,
                1.3423876762390137,
                1.3423876762390137
            ],
            "translation" : [
                -2.5338022708892822,
                1.3551530838012695,
                0.2410491704940796
            ]
        },
        {
            "mesh" : 6,
            "name" : "Car_Back_Seats",
            "scale" : [
                1.3423876762390137,
                1.3423876762390137,
                1.3423876762390137
            ],
            "translation" : [
                -2.5338022708892822,
                1.3551530838012695,
                0.2410491704940796
            ]
        },
        {
            "mesh" : 7,
            "name" : "Car_Windows",
            "scale" : [
                1.3423876762390137,
                1.3423876762390137,
                1.3423876762390137
            ],
            "translation" : [
                -2.5338022708892822,
                1.3551530838012695,
                0.2410491704940796
            ]
        },
        {
            "mesh" : 8,
            "name" : "Car_Lights_F_R",
            "scale" : [
                1.3423876762390137,
                1.3423876762390137,
                1.3423876762390137
            ],
            "translation" : [
                -2.5338022708892822,
                1.3551530838012695,
                0.2410491704940796
            ]
        },
        {
            "mesh" : 9,
            "name" : "Car_Lights_F_L",
            "scale" : [
                1.3423876762390137,
                1.3423876762390137,
                1.3423876762390137
            ],
            "translation" : [
                -2.5338022708892822,
                1.3551530838012695,
                0.2410491704940796
            ]
        },
        {
            "mesh" : 10,
            "name" : "Car_License_F",
            "scale" : [
                1.3423876762390137,
                1.3423876762390137,
                1.3423876762390137
            ],
            "translation" : [
                -2.5338022708892822,
                1.3551530838012695,
                0.2410491704940796
            ]
        },
        {
            "mesh" : 11,
            "name" : "Car_License_B",
            "scale" : [
                1.3423876762390137,
                1.3423876762390137,
                1.3423876762390137
            ],
            "translation" : [
                -2.5338022708892822,
                1.3551530838012695,
                0.2410491704940796
            ]
        },
        {
            "mesh" : 12,
            "name" : "Car_Lights_B_R",
            "scale" : [
                1.3423876762390137,
                1.3423876762390137,
                1.3423876762390137
            ],
            "translation" : [
                -2.5338022708892822,
                1.3551530838012695,
                0.2410491704940796
            ]
        },
        {
            "mesh" : 13,
            "name" : "Car_Lights_B_L",
            "scale" : [
                1.3423876762390137,
                1.3423876762390137,
                1.3423876762390137
            ],
            "translation" : [
                -2.5338022708892822,
                1.3551530838012695,
                0.2410491704940796
            ]
        }
    ],
    "meshes" : [
        {
            "name" : "Plane.010",
            "primitives" : [
                {
                    "attributes" : {
                        "POSITION" : 0
                    },
                    "indices" : 1
                }
            ]
        },
        {
            "name" : "Plane.040",
            "primitives" : [
                {
                    "attributes" : {
                        "POSITION" : 2
                    },
                    "indices" : 3
                }
            ]
        },
        {
            "name" : "Plane.041",
            "primitives" : [
                {
                    "attributes" : {
                        "POSITION" : 4
                    },
                    "indices" : 5
                }
            ]
        },
        {
            "name" : "Plane.042",
            "primitives" : [
                {
                    "attributes" : {
                        "POSITION" : 6
                    },
                    "indices" : 7
                }
            ]
        },
        {
            "name" : "Plane.043",
            "primitives" : [
                {
                    "attributes" : {
                        "POSITION" : 8
                    },
                    "indices" : 9
                }
            ]
        },
        {
            "name" : "Plane.044",
            "primitives" : [
                {
                    "attributes" : {
                        "POSITION" : 10
                    },
                    "indices" : 11
                }
            ]
        },
        {
            "name" : "Plane.045",
            "primitives" : [
                {
                    "attributes" : {
                        "POSITION" : 12
                    },
                    "indices" : 13
                }
            ]
        },
        {
            "name" : "Plane.046",
            "primitives" : [
                {
                    "attributes" : {
                        "POSITION" : 14
                    },
                    "indices" : 15
                }
            ]
        },
        {
            "name" : "Plane.047",
            "primitives" : [
                {
                    "attributes" : {
                        "POSITION" : 16
                    },
                    "indices" : 17
                }
            ]
        },
        {
            "name" : "Plane.048",
            "primitives" : [
                {
                    "attributes" : {
                        "POSITION" : 18
                    },
                    "indices" : 19
                }
            ]
        },
        {
            "name" : "Plane.049",
            "primitives" : [
                {
                    "attributes" : {
                        "POSITION" : 20
                    },
                    "indices" : 21
                }
            ]
        },
        {
            "name" : "Plane.050",
            "primitives" : [
                {
                    "attributes" : {
                        "POSITION" : 22
                    },
                    "indices" : 23
                }
            ]
        },
        {
            "name" : "Plane.051",
            "primitives" : [
                {
                    "attributes" : {
                        "POSITION" : 24
                    },
                    "indices" : 25
                }
            ]
        },
        {
            "name" : "Plane.052",
            "primitives" : [
                {
                    "attributes" : {
                        "POSITION" : 26
                    },
                    "indices" : 27
                }
            ]
        }
    ],
    "accessors" : [
        {
            "bufferView" : 0,
            "componentType" : 5126,
            "count" : 1498,
            "max" : [
                1.607706904411316,
                0.6428674459457397,
                0.889678418636322
            ],
            "min" : [
                -1.607706904411316,
                -0.6428674459457397,
                -5.820766091346741e-09
            ],
            "type" : "VEC3"
        },
        {
            "bufferView" : 1,
            "componentType" : 5123,
            "count" : 2664,
            "type" : "SCALAR"
        },
        {
            "bufferView" : 2,
            "componentType" : 5126,
            "count" : 768,
            "max" : [
                -0.8128037452697754,
                0.6561088562011719,
                0.3678172528743744
            ],
            "min" : [
                -1.3214080333709717,
                0.4579392075538635,
                -0.14078707993030548
            ],
            "type" : "VEC3"
        },
        {
            "bufferView" : 3,
            "componentType" : 5123,
            "count" : 1140,
            "type" : "SCALAR"
        },
        {
            "bufferView" : 4,
            "componentType" : 5126,
            "count" : 768,
            "max" : [
                -0.8128037452697754,
                -0.4579392075538635,
                0.3678172528743744
            ],
            "min" : [
                -1.3214080333709717,
                -0.6561088562011719,
                -0.14078707993030548
            ],
            "type" : "VEC3"
        },
        {
            "bufferView" : 5,
            "componentType" : 5123,
            "count" : 1140,
            "type" : "SCALAR"
        },
        {
            "bufferView" : 6,
            "componentType" : 5126,
            "count" : 768,
            "max" : [
                1.1356620788574219,
                -0.4579392075538635,
                0.3678172528743744
            ],
            "min" : [
                0.6270577311515808,
                -0.6561088562011719,
                -0.14078707993030548
            ],
            "type" : "VEC3"
        },
        {
            "bufferView" : 7,
            "componentType" : 5123,
            "count" : 1140,
            "type" : "SCALAR"
        },
        {
            "bufferView" : 8,
            "componentType" : 5126,
            "count" : 768,
            "max" : [
                1.1356620788574219,
                0.6561088562011719,
                0.3678172528743744
            ],
            "min" : [
                0.6270577311515808,
                0.4579392075538635,
                -0.14078707993030548
            ],
            "type" : "VEC3"
        },
        {
            "bufferView" : 9,
            "componentType" : 5123,
            "count" : 1140,
            "type" : "SCALAR"
        },
        {
            "bufferView" : 10,
            "componentType" : 5126,
            "count" : 533,
            "max" : [
                0.0977461189031601,
                0.482781320810318,
                0.7376481294631958
            ],
            "min" : [
                -0.3613009750843048,
                -0.482781320810318,
                0.08513391017913818
            ],
            "type" : "VEC3"
        },
        {
            "bufferView" : 11,
            "componentType" : 5123,
            "count" : 780,
            "type" : "SCALAR"
        },
        {
            "bufferView" : 12,
            "componentType" : 5126,
            "count" : 230,
            "max" : [
                0.8500000834465027,
                0.474682092666626,
                0.6626484990119934
            ],
            "min" : [
                0.30000001192092896,
                -0.474682092666626,
                0.08513391017913818
            ],
            "type" : "VEC3"
        },
        {
            "bufferView" : 13,
            "componentType" : 5123,
            "count" : 420,
            "type" : "SCALAR"
        },
        {
            "bufferView" : 14,
            "componentType" : 5126,
            "count" : 42,
            "max" : [
                1.1869149208068848,
                0.632845938205719,
                0.8832947015762329
            ],
            "min" : [
                -0.7317558526992798,
                -0.632845938205719,
                0.5654672980308533
            ],
            "type" : "VEC3"
        },
        {
            "bufferView" : 15,
            "componentType" : 5123,
            "count" : 90,
            "type" : "SCALAR"
        },
        {
            "bufferView" : 16,
            "componentType" : 5126,
            "count" : 6,
            "max" : [
                -1.607706904411316,
                0.5700723528862,
                0.36224642395973206
            ],
            "min" : [
                -1.607706904411316,
                0.3621153235435486,
                0.26348569989204407
            ],
            "type" : "VEC3"
        },
        {
            "bufferView" : 17,
            "componentType" : 5123,
            "count" : 12,
            "type" : "SCALAR"
        },
        {
            "bufferView" : 18,
            "componentType" : 5126,
            "count" : 6,
            "max" : [
                -1.607706904411316,
                -0.3621153235435486,
                0.36224642395973206
            ],
            "min" : [
                -1.607706904411316,
                -0.5700723528862,
                0.26348569989204407
            ],
            "type" : "VEC3"
        },
        {
            "bufferView" : 19,
            "componentType" : 5123,
            "count" : 12,
            "type" : "SCALAR"
        },
        {
            "bufferView" : 20,
            "componentType" : 5126,
            "count" : 6,
            "max" : [
                -1.607706904411316,
                0.18623532354831696,
                0.30000001192092896
            ],
            "min" : [
                -1.607706904411316,
                -0.18623532354831696,
                0.20000000298023224
            ],
            "type" : "VEC3"
        },
        {
            "bufferView" : 21,
            "componentType" : 5123,
            "count" : 12,
            "type" : "SCALAR"
        },
        {
            "bufferView" : 22,
            "componentType" : 5126,
            "count" : 4,
            "max" : [
                1.607706904411316,
                0.2199999988079071,
                0.25
            ],
            "min" : [
                1.607706904411316,
                -0.2199999988079071,
                0.15000000596046448
            ],
            "type" : "VEC3"
        },
        {
            "bufferView" : 23,
            "componentType" : 5123,
            "count" : 6,
            "type" : "SCALAR"
        },
        {
            "bufferView" : 24,
            "componentType" : 5126,
            "count" : 9,
            "max" : [
                1.607706904411316,
                -0.4141004681587219,
                0.3590751588344574
            ],
            "min" : [
                1.607706904411316,
                -0.629731297492981,
                0.27069389820098877
            ],
            "type" : "VEC3"
        },
        {
            "bufferView" : 25,
            "componentType" : 5123,
            "count" : 15,
            "type" : "SCALAR"
        },
        {
            "bufferView" : 26,
            "componentType" : 5126,
            "count" : 9,
            "max" : [
                1.607706904411316,
                0.629731297492981,
                0.3590751588344574
            ],
            "min" : [
                1.607706904411316,
                0.4141004681587219,
                0.27069389820098877
            ],
            "type" : "VEC3"
        },
        {
            "bufferView" : 27,
            "componentType" : 5123,
            "count" : 15,
            "type" : "SCALAR"
        }
    ],
    "bufferViews" : [
        {
            "buffer" : 0,
            "byteLength" : 17976,
            "byteOffset" : 0
        },
        {
            "buffer" : 0,
            "byteLength" : 5328,
            "byteOffset" : 17976
        },
        {
            "buffer" : 0,
            "byteLength" : 9216,
            "byteOffset" : 23304
        },
        {
            "buffer" : 0,
            "byteLength" : 2280,
            "byteOffset" : 32520
        },
        {
            "buffer" : 0,
            "byteLength" : 9216,
            "byteOffset" : 34800
        },
        {
            "buffer" : 0,
            "byteLength" : 2280,
            "byteOffset" : 44016
        },
        {
            "buffer" : 0,
            "byteLength" : 9216,
            "byteOffset" : 46296
        },
        {
            "buffer" : 0,
            "byteLength" : 2280,
            "byteOffset" : 55512
        },
        {
            "buffer" : 0,
            "byteLength" : 9216,
            "byteOffset" : 57792
        },
        {
            "buffer" : 0,
            "byteLength" : 2280,
            "byteOffset" : 67008
        },
        {
            "buffer" : 0,
            "byteLength" : 6396,
            "byteOffset" : 69288
        },
        {
            "buffer" : 0,
            "byteLength" : 1560,
            "byteOffset" : 75684
        },
        {
            "buffer" : 0,
            "byteLength" : 2760,
            "byteOffset" : 77244
        },
        {
            "buffer" : 0,
            "byteLength" : 840,
            "byteOffset" : 80004
        },
        {
            "buffer" : 0,
            "byteLength" : 504,
            "byteOffset" : 80844
        },
        {
            "buffer" : 0,
            "byteLength" : 180,
            "byteOffset" : 81348
        },
        {
            "buffer" : 0,
            "byteLength" : 72,
            "byteOffset" : 81528
        },
        {
            "buffer" : 0,
            "byteLength" : 24,
            "byteOffset" : 81600
        },
        {
            "buffer" : 0,
            "byteLength" : 72,
            "byteOffset" : 81624
        },
        {
            "buffer" : 0,
            "byteLength" : 24,
            "byteOffset" : 81696
        },
        {
            "buffer" : 0,
            "byteLength" : 72,
            "byteOffset" : 81720
        },
        {
            "buffer" : 0,
            "byteLength" : 24,
            "byteOffset" : 81792
        },
        {
            "buffer" : 0,
            "byteLength" : 48,
            "byteOffset" : 81816
        },
        {
            "buffer" : 0,
            "byteLength" : 12,
            "byteOffset" : 81864
        },
        {
            "buffer" : 0,
            "byteLength" : 108,
            "byteOffset" : 81876
        },
        {
            "buffer" : 0,
            "byteLength" : 30,
            "byteOffset" : 81984
        },
        {
            "buffer" : 0,
            "byteLength" : 108,
            "byteOffset" : 82016
        },
        {
            "buffer" : 0,
            "byteLength" : 30,
            "byteOffset" : 82124
        }
    ],
    "buffers" : [
        {
            "byteLength" : 82156,
            "uri" : "data:application/octet-stream;base64,"
        }
    ]
}
