{
    "asset" : {
        "generator" : "Khronos glTF Blender I/O v1.1.46",
        "version" : "2.0"
    },
    "scene" : 0,
    "scenes" : [
        {
            "name" : "Scene",
            "nodes" : [
                0
            ]
        }
    ],
    "nodes" : [
        {
            "mesh" : 0,
            "name" : "Car_Green",
            "translation" : [
                0.8487508296966553,
                0.0008749999105930328,
                0.5646486282348633
            ]
        }
    ],
    "materials" : [
        {
            "doubleSided" : true,
            "emissiveFactor" : [
                0,
                0,
                0
            ],
            "name" : "Material",
            "pbrMetallicRoughness" : {
                "baseColorTexture" : {
                    "index" : 0,
                    "texCoord" : 0
                },
                "metallicFactor" : 0,
                "roughnessFactor" : 0.5
            }
        }
    ],
    "meshes" : [
        {
            "name" : "Plane.010",
            "primitives" : [
                {
                    "attributes" : {
                        "POSITION" : 0,
                        "NORMAL" : 1,
                        "TEXCOORD_0" : 2
                    },
                    "indices" : 3,
                    "material" : 0
                }
            ]
        }
    ],
    "textures" : [
        {
            "source" : 0
        }
    ],
    "images" : [
        {
            "bufferView" : 4,
            "mimeType" : "image/png",
            "name" : "UV_Car_Purple"
        }
    ],
    "accessors" : [
        {
            "bufferView" : 0,
            "componentType" : 5126,
            "count" : 1171,
            "max" : [
                1.607706904411316,
                0.6561088562011719,
                0.889678418636322
            ],
            "min" : [
                -1.607706904411316,
                -0.6561088562011719,
                -0.14158093929290771
            ],
            "type" : "VEC3"
        },
        {
            "bufferView" : 1,
            "componentType" : 5126,
            "count" : 1171,
            "type" : "VEC3"
        },
        {
            "bufferView" : 2,
            "componentType" : 5126,
            "count" : 1171,
            "type" : "VEC2"
        },
        {
            "bufferView" : 3,
            "componentType" : 5123,
            "count" : 2184,
            "type" : "SCALAR"
        }
    ],
    "bufferViews" : [
        {
            "buffer" : 0,
            "byteLength" : 14052,
            "byteOffset" : 0
        },
        {
            "buffer" : 0,
            "byteLength" : 14052,
            "byteOffset" : 14052
        },
        {
            "buffer" : 0,
            "byteLength" : 9368,
            "byteOffset" : 28104
        },
        {
            "buffer" : 0,
            "byteLength" : 4368,
            "byteOffset" : 37472
        },
        {
            "buffer" : 0,
            "byteLength" : 521627,
            "byteOffset" : 41840
        }
    ],
    "buffers" : [
        {
            "byteLength" : 563468,
            "uri" : "data:application/octet-stream;base64,"
        }
    ]
}
