{
    "asset" : {
        "generator" : "Khronos glTF Blender I/O v1.1.46",
        "version" : "2.0"
    },
    "scene" : 0,
    "scenes" : [
        {
            "extras" : {
                "glTF2ExportSettings" : {
                    "export_apply" : 0,
                    "export_extras" : 1,
                    "export_format" : "GLTF_EMBEDDED",
                    "export_selected" : 1,
                    "export_yup" : 0
                }
            },
            "name" : "Scene",
            "nodes" : [
                0,
                1,
                2
            ]
        }
    ],
    "nodes" : [
        {
            "mesh" : 0,
            "name" : "Armaturenbrett",
            "translation" : [
                0.8487508296966553,
                0.0008749999105930328,
                0.5646486282348633
            ]
        },
        {
            "mesh" : 1,
            "name" : "Car_Green.001",
            "translation" : [
                0.8487508296966553,
                0.0008749999105930328,
                0.5646486282348633
            ]
        },
        {
            "mesh" : 2,
            "name" : "Verkleidung_Innen",
            "scale" : [
                1.503800868988037,
                0.5570400357246399,
                0.5570400357246399
            ],
            "translation" : [
                0.848389208316803,
                -0.0015350768808275461,
                0.7018529772758484
            ]
        }
    ],
    "materials" : [
        {
            "doubleSided" : true,
            "emissiveFactor" : [
                0,
                0,
                0
            ],
            "name" : "Material",
            "pbrMetallicRoughness" : {
                "baseColorFactor" : [
                    0.029228217899799347,
                    0.029228217899799347,
                    0.029228217899799347,
                    1
                ],
                "metallicFactor" : 0,
                "roughnessFactor" : 1
            }
        },
        {
            "doubleSided" : true,
            "emissiveFactor" : [
                0,
                0,
                0
            ],
            "name" : "Car_Texture",
            "pbrMetallicRoughness" : {
                "baseColorTexture" : {
                    "index" : 0,
                    "texCoord" : 0
                },
                "metallicFactor" : 0.6,
                "roughnessFactor" : 0.4000000059604645
            }
        },
        {
            "doubleSided" : true,
            "emissiveFactor" : [
                0,
                0,
                0
            ],
            "name" : "Material.004",
            "pbrMetallicRoughness" : {
                "baseColorFactor" : [
                    0.11493556201457977,
                    0.11493556201457977,
                    0.11493556201457977,
                    1
                ],
                "metallicFactor" : 0,
                "roughnessFactor" : 0.5
            }
        }
    ],
    "meshes" : [
        {
            "name" : "Plane.001",
            "primitives" : [
                {
                    "attributes" : {
                        "POSITION" : 0,
                        "NORMAL" : 1,
                        "TEXCOORD_0" : 2
                    },
                    "indices" : 3,
                    "material" : 0
                }
            ]
        },
        {
            "name" : "Plane.010",
            "primitives" : [
                {
                    "attributes" : {
                        "POSITION" : 4,
                        "NORMAL" : 5,
                        "TEXCOORD_0" : 6
                    },
                    "indices" : 7,
                    "material" : 1
                }
            ]
        },
        {
            "name" : "Plane",
            "primitives" : [
                {
                    "attributes" : {
                        "POSITION" : 8,
                        "NORMAL" : 9,
                        "TEXCOORD_0" : 10
                    },
                    "indices" : 11,
                    "material" : 2
                }
            ]
        }
    ],
    "textures" : [
        {
            "source" : 0
        }
    ],
    "images" : [
        {
            "bufferView" : 8,
            "mimeType" : "image/png",
            "name" : "Car_Tuerkis"
        }
    ],
    "accessors" : [
        {
            "bufferView" : 0,
            "componentType" : 5126,
            "count" : 2360,
            "max" : [
                -0.4309769868850708,
                0.5386011004447937,
                0.7018303871154785
            ],
            "min" : [
                -0.7317558526992798,
                -0.5386011004447937,
                0.4783683717250824
            ],
            "type" : "VEC3"
        },
        {
            "bufferView" : 1,
            "componentType" : 5126,
            "count" : 2360,
            "type" : "VEC3"
        },
        {
            "bufferView" : 2,
            "componentType" : 5126,
            "count" : 2360,
            "type" : "VEC2"
        },
        {
            "bufferView" : 3,
            "componentType" : 5123,
            "count" : 3540,
            "type" : "SCALAR"
        },
        {
            "bufferView" : 4,
            "componentType" : 5126,
            "count" : 4680,
            "max" : [
                1.607706904411316,
                0.6561088562011719,
                0.889678418636322
            ],
            "min" : [
                -1.607706904411316,
                -0.6561088562011719,
                -0.14078707993030548
            ],
            "type" : "VEC3"
        },
        {
            "bufferView" : 5,
            "componentType" : 5126,
            "count" : 4680,
            "type" : "VEC3"
        },
        {
            "bufferView" : 6,
            "componentType" : 5126,
            "count" : 4680,
            "type" : "VEC2"
        },
        {
            "bufferView" : 7,
            "componentType" : 5123,
            "count" : 7050,
            "type" : "SCALAR"
        },
        {
            "bufferView" : 9,
            "componentType" : 5126,
            "count" : 48,
            "max" : [
                1,
                1.14491605758667,
                0.8182092308998108
            ],
            "min" : [
                -0.5574080348014832,
                -1.14491605758667,
                0
            ],
            "type" : "VEC3"
        },
        {
            "bufferView" : 10,
            "componentType" : 5126,
            "count" : 48,
            "type" : "VEC3"
        },
        {
            "bufferView" : 11,
            "componentType" : 5126,
            "count" : 48,
            "type" : "VEC2"
        },
        {
            "bufferView" : 12,
            "componentType" : 5123,
            "count" : 72,
            "type" : "SCALAR"
        }
    ],
    "bufferViews" : [
        {
            "buffer" : 0,
            "byteLength" : 28320,
            "byteOffset" : 0
        },
        {
            "buffer" : 0,
            "byteLength" : 28320,
            "byteOffset" : 28320
        },
        {
            "buffer" : 0,
            "byteLength" : 18880,
            "byteOffset" : 56640
        },
        {
            "buffer" : 0,
            "byteLength" : 7080,
            "byteOffset" : 75520
        },
        {
            "buffer" : 0,
            "byteLength" : 56160,
            "byteOffset" : 82600
        },
        {
            "buffer" : 0,
            "byteLength" : 56160,
            "byteOffset" : 138760
        },
        {
            "buffer" : 0,
            "byteLength" : 37440,
            "byteOffset" : 194920
        },
        {
            "buffer" : 0,
            "byteLength" : 14100,
            "byteOffset" : 232360
        },
        {
            "buffer" : 0,
            "byteLength" : 308415,
            "byteOffset" : 246460
        },
        {
            "buffer" : 0,
            "byteLength" : 576,
            "byteOffset" : 554876
        },
        {
            "buffer" : 0,
            "byteLength" : 576,
            "byteOffset" : 555452
        },
        {
            "buffer" : 0,
            "byteLength" : 384,
            "byteOffset" : 556028
        },
        {
            "buffer" : 0,
            "byteLength" : 144,
            "byteOffset" : 556412
        }
    ],
    "buffers" : [
        {
            "byteLength" : 556556,
            "uri" : "data:application/octet-stream;base64,"
        }
    ]
}
