{
    "asset" : {
        "generator" : "Khronos glTF Blender I/O v1.1.46",
        "version" : "2.0"
    },
    "scene" : 0,
    "scenes" : [
        {
            "name" : "Scene",
            "nodes" : [
                0,
                1
            ]
        }
    ],
    "nodes" : [
        {
            "mesh" : 0,
            "name" : "leaves",
            "scale" : [
                3,
                3,
                3
            ]
        },
        {
            "mesh" : 1,
            "name" : "trunk",
            "rotation" : [
                0,
                1,
                0,
                -1.6292068494294654e-07
            ],
            "scale" : [
                3,
                3,
                3
            ]
        }
    ],
    "materials" : [
        {
            "doubleSided" : true,
            "name" : "tree_green",
            "pbrMetallicRoughness" : {}
        },
        {
            "doubleSided" : true,
            "name" : "tree_bark_dark",
            "pbrMetallicRoughness" : {}
        }
    ],
    "meshes" : [
        {
            "name" : "Icosphere",
            "primitives" : [
                {
                    "attributes" : {
                        "POSITION" : 0,
                        "NORMAL" : 1,
                        "COLOR_0" : 2
                    },
                    "indices" : 3,
                    "material" : 0
                }
            ]
        },
        {
            "name" : "Cube",
            "primitives" : [
                {
                    "attributes" : {
                        "POSITION" : 4,
                        "NORMAL" : 5
                    },
                    "indices" : 6,
                    "material" : 1
                }
            ]
        }
    ],
    "accessors" : [
        {
            "bufferView" : 0,
            "componentType" : 5126,
            "count" : 720,
            "max" : [
                0.9686177968978882,
                2.8738760948181152,
                0.9100788831710815
            ],
            "min" : [
                -1.4788557291030884,
                1.3605287075042725,
                -0.9008835554122925
            ],
            "type" : "VEC3"
        },
        {
            "bufferView" : 1,
            "componentType" : 5126,
            "count" : 720,
            "type" : "VEC3"
        },
        {
            "bufferView" : 2,
            "componentType" : 5126,
            "count" : 720,
            "type" : "VEC4"
        },
        {
            "bufferView" : 3,
            "componentType" : 5123,
            "count" : 720,
            "type" : "SCALAR"
        },
        {
            "bufferView" : 4,
            "componentType" : 5126,
            "count" : 306,
            "max" : [
                0.6593194007873535,
                2.2912991046905518,
                0.19023892283439636
            ],
            "min" : [
                -0.49723494052886963,
                -0.03284935653209686,
                -0.37364470958709717
            ],
            "type" : "VEC3"
        },
        {
            "bufferView" : 5,
            "componentType" : 5126,
            "count" : 306,
            "type" : "VEC3"
        },
        {
            "bufferView" : 6,
            "componentType" : 5123,
            "count" : 312,
            "type" : "SCALAR"
        }
    ],
    "bufferViews" : [
        {
            "buffer" : 0,
            "byteLength" : 8640,
            "byteOffset" : 0
        },
        {
            "buffer" : 0,
            "byteLength" : 8640,
            "byteOffset" : 8640
        },
        {
            "buffer" : 0,
            "byteLength" : 11520,
            "byteOffset" : 17280
        },
        {
            "buffer" : 0,
            "byteLength" : 1440,
            "byteOffset" : 28800
        },
        {
            "buffer" : 0,
            "byteLength" : 3672,
            "byteOffset" : 30240
        },
        {
            "buffer" : 0,
            "byteLength" : 3672,
            "byteOffset" : 33912
        },
        {
            "buffer" : 0,
            "byteLength" : 624,
            "byteOffset" : 37584
        }
    ],
    "buffers" : [
        {
            "byteLength" : 38208,
            "uri" : "data:application/octet-stream;base64,"
        }
    ]
}
