{
    "asset" : {
        "generator" : "Khronos glTF Blender I/O v1.1.46",
        "version" : "2.0"
    },
    "scene" : 0,
    "scenes" : [
        {
            "name" : "Scene",
            "nodes" : [
                0,
                1
            ]
        }
    ],
    "nodes" : [
        {
            "mesh" : 0,
            "name" : "leaves",
            "scale" : [
                3,
                3,
                3
            ]
        },
        {
            "mesh" : 1,
            "name" : "trunk",
            "rotation" : [
                0,
                1,
                0,
                -1.6292068494294654e-07
            ],
            "scale" : [
                3,
                3,
                3
            ]
        }
    ],
    "materials" : [
        {
            "doubleSided" : true,
            "name" : "tree_green",
            "pbrMetallicRoughness" : {}
        },
        {
            "doubleSided" : true,
            "name" : "tree_bark_dark",
            "pbrMetallicRoughness" : {}
        }
    ],
    "meshes" : [
        {
            "name" : "Icosphere",
            "primitives" : [
                {
                    "attributes" : {
                        "POSITION" : 0,
                        "NORMAL" : 1,
                        "COLOR_0" : 2
                    },
                    "indices" : 3,
                    "material" : 0
                }
            ]
        },
        {
            "name" : "Cube",
            "primitives" : [
                {
                    "attributes" : {
                        "POSITION" : 4,
                        "NORMAL" : 5,
                        "COLOR_0" : 6
                    },
                    "indices" : 7,
                    "material" : 1
                }
            ]
        }
    ],
    "accessors" : [
        {
            "bufferView" : 0,
            "componentType" : 5126,
            "count" : 840,
            "max" : [
                0.730973482131958,
                2.941868305206299,
                0.5706083178520203
            ],
            "min" : [
                -0.8534592390060425,
                1.1817163228988647,
                -0.5779058933258057
            ],
            "type" : "VEC3"
        },
        {
            "bufferView" : 1,
            "componentType" : 5126,
            "count" : 840,
            "type" : "VEC3"
        },
        {
            "bufferView" : 2,
            "componentType" : 5126,
            "count" : 840,
            "type" : "VEC4"
        },
        {
            "bufferView" : 3,
            "componentType" : 5123,
            "count" : 840,
            "type" : "SCALAR"
        },
        {
            "bufferView" : 4,
            "componentType" : 5126,
            "count" : 1028,
            "max" : [
                0.5189012289047241,
                2.80643630027771,
                0.3827275335788727
            ],
            "min" : [
                -0.3143981695175171,
                -0.024670343846082687,
                -0.20339274406433105
            ],
            "type" : "VEC3"
        },
        {
            "bufferView" : 5,
            "componentType" : 5126,
            "count" : 1028,
            "type" : "VEC3"
        },
        {
            "bufferView" : 6,
            "componentType" : 5126,
            "count" : 1028,
            "type" : "VEC4"
        },
        {
            "bufferView" : 7,
            "componentType" : 5123,
            "count" : 1032,
            "type" : "SCALAR"
        }
    ],
    "bufferViews" : [
        {
            "buffer" : 0,
            "byteLength" : 10080,
            "byteOffset" : 0
        },
        {
            "buffer" : 0,
            "byteLength" : 10080,
            "byteOffset" : 10080
        },
        {
            "buffer" : 0,
            "byteLength" : 13440,
            "byteOffset" : 20160
        },
        {
            "buffer" : 0,
            "byteLength" : 1680,
            "byteOffset" : 33600
        },
        {
            "buffer" : 0,
            "byteLength" : 12336,
            "byteOffset" : 35280
        },
        {
            "buffer" : 0,
            "byteLength" : 12336,
            "byteOffset" : 47616
        },
        {
            "buffer" : 0,
            "byteLength" : 16448,
            "byteOffset" : 59952
        },
        {
            "buffer" : 0,
            "byteLength" : 2064,
            "byteOffset" : 76400
        }
    ],
    "buffers" : [
        {
            "byteLength" : 78464,
            "uri" : "data:application/octet-stream;base64,"
        }
    ]
}
