{
    "asset" : {
        "generator" : "Khronos glTF Blender I/O v1.1.46",
        "version" : "2.0"
    },
    "scene" : 0,
    "scenes" : [
        {
            "name" : "Scene",
            "nodes" : [
                0,
                1
            ]
        }
    ],
    "nodes" : [
        {
            "mesh" : 0,
            "name" : "leaves",
            "scale" : [
                2,
                2,
                2
            ]
        },
        {
            "mesh" : 1,
            "name" : "trunk",
            "rotation" : [
                0,
                1,
                0,
                -1.6292068494294654e-07
            ],
            "scale" : [
                2,
                2,
                2
            ]
        }
    ],
    "materials" : [
        {
            "doubleSided" : true,
            "name" : "tree_green",
            "pbrMetallicRoughness" : {}
        },
        {
            "doubleSided" : true,
            "name" : "tree_bark_light",
            "pbrMetallicRoughness" : {}
        }
    ],
    "meshes" : [
        {
            "name" : "Icosphere.002",
            "primitives" : [
                {
                    "attributes" : {
                        "POSITION" : 0,
                        "NORMAL" : 1
                    },
                    "indices" : 2,
                    "material" : 0
                }
            ]
        },
        {
            "name" : "Cube",
            "primitives" : [
                {
                    "attributes" : {
                        "POSITION" : 3,
                        "NORMAL" : 4
                    },
                    "indices" : 5,
                    "material" : 1
                }
            ]
        }
    ],
    "accessors" : [
        {
            "bufferView" : 0,
            "componentType" : 5126,
            "count" : 480,
            "max" : [
                1.5426914691925049,
                3.9817521572113037,
                1.6193618774414062
            ],
            "min" : [
                -1.9613820314407349,
                1.6788188219070435,
                -1.40133798122406
            ],
            "type" : "VEC3"
        },
        {
            "bufferView" : 1,
            "componentType" : 5126,
            "count" : 480,
            "type" : "VEC3"
        },
        {
            "bufferView" : 2,
            "componentType" : 5123,
            "count" : 480,
            "type" : "SCALAR"
        },
        {
            "bufferView" : 3,
            "componentType" : 5126,
            "count" : 578,
            "max" : [
                0.5519959926605225,
                2.119523525238037,
                0.48236528038978577
            ],
            "min" : [
                -0.22273145616054535,
                -0.013346798717975616,
                -0.900821328163147
            ],
            "type" : "VEC3"
        },
        {
            "bufferView" : 4,
            "componentType" : 5126,
            "count" : 578,
            "type" : "VEC3"
        },
        {
            "bufferView" : 5,
            "componentType" : 5123,
            "count" : 606,
            "type" : "SCALAR"
        }
    ],
    "bufferViews" : [
        {
            "buffer" : 0,
            "byteLength" : 5760,
            "byteOffset" : 0
        },
        {
            "buffer" : 0,
            "byteLength" : 5760,
            "byteOffset" : 5760
        },
        {
            "buffer" : 0,
            "byteLength" : 960,
            "byteOffset" : 11520
        },
        {
            "buffer" : 0,
            "byteLength" : 6936,
            "byteOffset" : 12480
        },
        {
            "buffer" : 0,
            "byteLength" : 6936,
            "byteOffset" : 19416
        },
        {
            "buffer" : 0,
            "byteLength" : 1212,
            "byteOffset" : 26352
        }
    ],
    "buffers" : [
        {
            "byteLength" : 27564,
            "uri" : "data:application/octet-stream;base64,"
        }
    ]
}
