{
    "asset" : {
        "generator" : "Khronos glTF Blender I/O v1.1.46",
        "version" : "2.0"
    },
    "scene" : 0,
    "scenes" : [
        {
            "name" : "Scene",
            "nodes" : [
                0,
                1,
                2,
                3
            ]
        }
    ],
    "nodes" : [
        {
            "mesh" : 0,
            "name" : "leaves",
            "scale" : [
                3,
                3,
                3
            ]
        },
        {
            "mesh" : 1,
            "name" : "trunk",
            "rotation" : [
                0,
                1,
                0,
                -1.6292068494294654e-07
            ],
            "scale" : [
                3,
                3,
                3
            ]
        },
        {
            "name" : "Lamp",
            "rotation" : [
                0.1329938769340515,
                0.881120502948761,
                0.43801793456077576,
                -0.11865729093551636
            ],
            "translation" : [
                4.076245307922363,
                5.903861999511719,
                -1.0054539442062378
            ]
        },
        {
            "name" : "Camera",
            "rotation" : [
                0.655529797077179,
                -0.07206248492002487,
                0.06306367367506027,
                0.7490732073783875
            ],
            "translation" : [
                -4.888769626617432,
                7.803584575653076,
                22.56386947631836
            ]
        }
    ],
    "materials" : [
        {
            "doubleSided" : true,
            "name" : "tree_green",
            "pbrMetallicRoughness" : {}
        },
        {
            "doubleSided" : true,
            "name" : "tree_bark_light",
            "pbrMetallicRoughness" : {}
        }
    ],
    "meshes" : [
        {
            "name" : "Icosphere.002",
            "primitives" : [
                {
                    "attributes" : {
                        "POSITION" : 0,
                        "NORMAL" : 1
                    },
                    "indices" : 2,
                    "material" : 0
                }
            ]
        },
        {
            "name" : "Cube",
            "primitives" : [
                {
                    "attributes" : {
                        "POSITION" : 3,
                        "NORMAL" : 4
                    },
                    "indices" : 5,
                    "material" : 1
                }
            ]
        }
    ],
    "accessors" : [
        {
            "bufferView" : 0,
            "componentType" : 5126,
            "count" : 480,
            "max" : [
                2.077976703643799,
                3.1901087760925293,
                2.085160732269287
            ],
            "min" : [
                -2.463688373565674,
                1.315429449081421,
                -1.8388595581054688
            ],
            "type" : "VEC3"
        },
        {
            "bufferView" : 1,
            "componentType" : 5126,
            "count" : 480,
            "type" : "VEC3"
        },
        {
            "bufferView" : 2,
            "componentType" : 5123,
            "count" : 480,
            "type" : "SCALAR"
        },
        {
            "bufferView" : 3,
            "componentType" : 5126,
            "count" : 476,
            "max" : [
                0.981296956539154,
                1.8290135860443115,
                0.442376047372818
            ],
            "min" : [
                -0.7276075482368469,
                -0.004283974878489971,
                -0.8848870396614075
            ],
            "type" : "VEC3"
        },
        {
            "bufferView" : 4,
            "componentType" : 5126,
            "count" : 476,
            "type" : "VEC3"
        },
        {
            "bufferView" : 5,
            "componentType" : 5123,
            "count" : 492,
            "type" : "SCALAR"
        }
    ],
    "bufferViews" : [
        {
            "buffer" : 0,
            "byteLength" : 5760,
            "byteOffset" : 0
        },
        {
            "buffer" : 0,
            "byteLength" : 5760,
            "byteOffset" : 5760
        },
        {
            "buffer" : 0,
            "byteLength" : 960,
            "byteOffset" : 11520
        },
        {
            "buffer" : 0,
            "byteLength" : 5712,
            "byteOffset" : 12480
        },
        {
            "buffer" : 0,
            "byteLength" : 5712,
            "byteOffset" : 18192
        },
        {
            "buffer" : 0,
            "byteLength" : 984,
            "byteOffset" : 23904
        }
    ],
    "buffers" : [
        {
            "byteLength" : 24888,
            "uri" : "data:application/octet-stream;base64,"
        }
    ]
}
