{
    "asset" : {
        "generator" : "Khronos glTF Blender I/O v1.1.46",
        "version" : "2.0"
    },
    "scene" : 0,
    "scenes" : [
        {
            "extras" : {
                "glTF2ExportSettings" : {
                    "export_all_influences" : 0,
                    "export_animations" : 0,
                    "export_apply" : 1,
                    "export_cameras" : 0,
                    "export_colors" : 1,
                    "export_def_bones" : 1,
                    "export_extras" : 1,
                    "export_force_sampling" : 1,
                    "export_format" : "GLTF_EMBEDDED",
                    "export_frame_range" : 1,
                    "export_materials" : 1,
                    "export_morph" : 0,
                    "export_morph_tangent" : 1,
                    "export_nla_strips" : 1,
                    "export_normals" : 1,
                    "export_selected" : 1,
                    "export_skins" : 0,
                    "export_texcoords" : 1,
                    "export_yup" : 0
                }
            },
            "name" : "Scene",
            "nodes" : [
                0
            ]
        },
        {
            "name" : "Scene.001"
        }
    ],
    "nodes" : [
        {
            "mesh" : 0,
            "name" : "Bank_target"
        }
    ],
    "materials" : [
        {
            "doubleSided" : true,
            "emissiveFactor" : [
                0,
                0,
                0
            ],
            "name" : "Bank_Material",
            "pbrMetallicRoughness" : {
                "baseColorTexture" : {
                    "index" : 0,
                    "texCoord" : 0
                },
                "metallicFactor" : 0,
                "roughnessFactor" : 1
            }
        },
        {
            "doubleSided" : true,
            "emissiveFactor" : [
                0,
                0,
                0
            ],
            "name" : "BankBeine",
            "pbrMetallicRoughness" : {
                "baseColorFactor" : [
                    0.5173342227935791,
                    0.5173342227935791,
                    0.5173342227935791,
                    1
                ],
                "metallicFactor" : 1,
                "roughnessFactor" : 0.5
            }
        }
    ],
    "meshes" : [
        {
            "name" : "Plane.054",
            "primitives" : [
                {
                    "attributes" : {
                        "POSITION" : 0,
                        "NORMAL" : 1,
                        "TEXCOORD_0" : 2
                    },
                    "indices" : 3,
                    "material" : 0
                },
                {
                    "attributes" : {
                        "POSITION" : 4,
                        "NORMAL" : 5,
                        "TEXCOORD_0" : 6
                    },
                    "indices" : 7,
                    "material" : 1
                }
            ]
        }
    ],
    "textures" : [
        {
            "source" : 0
        }
    ],
    "images" : [
        {
            "bufferView" : 4,
            "mimeType" : "image/png",
            "name" : "Bank_Target"
        }
    ],
    "accessors" : [
        {
            "bufferView" : 0,
            "componentType" : 5126,
            "count" : 337,
            "max" : [
                0.3500000238418579,
                1.100000023841858,
                1.0068780183792114
            ],
            "min" : [
                -0.4000000059604645,
                -1.100000023841858,
                0
            ],
            "type" : "VEC3"
        },
        {
            "bufferView" : 1,
            "componentType" : 5126,
            "count" : 337,
            "type" : "VEC3"
        },
        {
            "bufferView" : 2,
            "componentType" : 5126,
            "count" : 337,
            "type" : "VEC2"
        },
        {
            "bufferView" : 3,
            "componentType" : 5123,
            "count" : 684,
            "type" : "SCALAR"
        },
        {
            "bufferView" : 5,
            "componentType" : 5126,
            "count" : 124,
            "max" : [
                0.4416593313217163,
                1,
                1
            ],
            "min" : [
                -0.3500000238418579,
                -1,
                0
            ],
            "type" : "VEC3"
        },
        {
            "bufferView" : 6,
            "componentType" : 5126,
            "count" : 124,
            "type" : "VEC3"
        },
        {
            "bufferView" : 7,
            "componentType" : 5126,
            "count" : 124,
            "type" : "VEC2"
        },
        {
            "bufferView" : 8,
            "componentType" : 5123,
            "count" : 210,
            "type" : "SCALAR"
        }
    ],
    "bufferViews" : [
        {
            "buffer" : 0,
            "byteLength" : 4044,
            "byteOffset" : 0
        },
        {
            "buffer" : 0,
            "byteLength" : 4044,
            "byteOffset" : 4044
        },
        {
            "buffer" : 0,
            "byteLength" : 2696,
            "byteOffset" : 8088
        },
        {
            "buffer" : 0,
            "byteLength" : 1368,
            "byteOffset" : 10784
        },
        {
            "buffer" : 0,
            "byteLength" : 19365,
            "byteOffset" : 12152
        },
        {
            "buffer" : 0,
            "byteLength" : 1488,
            "byteOffset" : 31520
        },
        {
            "buffer" : 0,
            "byteLength" : 1488,
            "byteOffset" : 33008
        },
        {
            "buffer" : 0,
            "byteLength" : 992,
            "byteOffset" : 34496
        },
        {
            "buffer" : 0,
            "byteLength" : 420,
            "byteOffset" : 35488
        }
    ],
    "buffers" : [
        {
            "byteLength" : 35908,
            "uri" : "data:application/octet-stream;base64,"
        }
    ]
}
