{
    "asset" : {
        "generator" : "Khronos glTF Blender I/O v1.1.46",
        "version" : "2.0"
    },
    "scene" : 0,
    "scenes" : [
        {
            "name" : "Scene",
            "nodes" : [
                0
            ]
        }
    ],
    "nodes" : [
        {
            "mesh" : 0,
            "name" : "Trashcan",
            "rotation" : [
                0.7071068286895752,
                0,
                0,
                0.7071067094802856
            ],
            "translation" : [
                0,
                0,
                0.10000001639127731
            ]
        }
    ],
    "materials" : [
        {
            "doubleSided" : true,
            "emissiveFactor" : [
                0,
                0,
                0
            ],
            "name" : "Poller",
            "pbrMetallicRoughness" : {
                "baseColorFactor" : [
                    0.5173342227935791,
                    0.5173342227935791,
                    0.5173342227935791,
                    1
                ],
                "metallicFactor" : 0,
                "roughnessFactor" : 1
            }
        }
    ],
    "meshes" : [
        {
            "name" : "Cylinder.002",
            "primitives" : [
                {
                    "attributes" : {
                        "POSITION" : 0,
                        "NORMAL" : 1,
                        "TEXCOORD_0" : 2
                    },
                    "indices" : 3,
                    "material" : 0
                }
            ]
        }
    ],
    "accessors" : [
        {
            "bufferView" : 0,
            "componentType" : 5126,
            "count" : 583,
            "max" : [
                0.42606598138809204,
                0.9822404980659485,
                0.30000001192092896
            ],
            "min" : [
                -0.04999999701976776,
                -0.10000000149011612,
                -0.30000004172325134
            ],
            "type" : "VEC3"
        },
        {
            "bufferView" : 1,
            "componentType" : 5126,
            "count" : 583,
            "type" : "VEC3"
        },
        {
            "bufferView" : 2,
            "componentType" : 5126,
            "count" : 583,
            "type" : "VEC2"
        },
        {
            "bufferView" : 3,
            "componentType" : 5123,
            "count" : 669,
            "type" : "SCALAR"
        }
    ],
    "bufferViews" : [
        {
            "buffer" : 0,
            "byteLength" : 6996,
            "byteOffset" : 0
        },
        {
            "buffer" : 0,
            "byteLength" : 6996,
            "byteOffset" : 6996
        },
        {
            "buffer" : 0,
            "byteLength" : 4664,
            "byteOffset" : 13992
        },
        {
            "buffer" : 0,
            "byteLength" : 1338,
            "byteOffset" : 18656
        }
    ],
    "buffers" : [
        {
            "byteLength" : 19996,
            "uri" : "data:application/octet-stream;base64,"
        }
    ]
}
