{
    "asset" : {
        "generator" : "Khronos glTF Blender I/O v1.1.46",
        "version" : "2.0"
    },
    "scene" : 0,
    "scenes" : [
        {
            "name" : "Scene",
            "nodes" : [
                0,
                1,
                2,
                3,
                4
            ]
        }
    ],
    "nodes" : [
        {
            "mesh" : 0,
            "name" : "Achtung",
            "rotation" : [
                1,
                0,
                0,
                -1.3435884227419592e-07
            ],
            "translation" : [
                0,
                0,
                2.5575530529022217
            ]
        },
        {
            "mesh" : 1,
            "name" : "Poller",
            "rotation" : [
                0.7071068286895752,
                0,
                0,
                0.7071067094802856
            ],
            "translation" : [
                0,
                0,
                1.099582552909851
            ]
        },
        {
            "mesh" : 2,
            "name" : "VorfahrtAchten",
            "rotation" : [
                0,
                0,
                -1,
                -8.146034247147327e-08
            ],
            "translation" : [
                0,
                0,
                2.5575530529022217
            ]
        },
        {
            "mesh" : 3,
            "name" : "Vorfahrtsstra\u00dfe",
            "rotation" : [
                0.9238795638084412,
                0,
                -0.3826834559440613,
                -1.0312957243741039e-07
            ],
            "translation" : [
                0,
                -0.03000040538609028,
                2.712582588195801
            ]
        },
        {
            "mesh" : 4,
            "name" : "Stoppschild",
            "rotation" : [
                1,
                0,
                0,
                -1.3435884227419592e-07
            ],
            "translation" : [
                0,
                0.029999621212482452,
                2.562582492828369
            ]
        }
    ],
    "materials" : [
        {
            "doubleSided" : true,
            "emissiveFactor" : [
                0,
                0,
                0
            ],
            "name" : "Material.010",
            "pbrMetallicRoughness" : {
                "baseColorTexture" : {
                    "index" : 0,
                    "texCoord" : 0
                },
                "metallicFactor" : 0,
                "roughnessFactor" : 0.5
            }
        },
        {
            "doubleSided" : true,
            "emissiveFactor" : [
                0,
                0,
                0
            ],
            "name" : "Material.007",
            "pbrMetallicRoughness" : {
                "baseColorFactor" : [
                    0.15784791111946106,
                    0.15784791111946106,
                    0.15784791111946106,
                    1
                ],
                "metallicFactor" : 0.41818180680274963,
                "roughnessFactor" : 0.6954545378684998
            }
        },
        {
            "doubleSided" : true,
            "emissiveFactor" : [
                0,
                0,
                0
            ],
            "name" : "Material.008",
            "pbrMetallicRoughness" : {
                "baseColorTexture" : {
                    "index" : 1,
                    "texCoord" : 0
                },
                "metallicFactor" : 0,
                "roughnessFactor" : 0.5
            }
        },
        {
            "doubleSided" : true,
            "emissiveFactor" : [
                0,
                0,
                0
            ],
            "name" : "Material.009",
            "pbrMetallicRoughness" : {
                "baseColorTexture" : {
                    "index" : 2,
                    "texCoord" : 0
                },
                "metallicFactor" : 0.37272727489471436,
                "roughnessFactor" : 1
            }
        },
        {
            "doubleSided" : true,
            "emissiveFactor" : [
                0,
                0,
                0
            ],
            "name" : "Material.011",
            "pbrMetallicRoughness" : {
                "baseColorTexture" : {
                    "index" : 3,
                    "texCoord" : 0
                },
                "metallicFactor" : 0,
                "roughnessFactor" : 0.5
            }
        }
    ],
    "meshes" : [
        {
            "name" : "Plane.020",
            "primitives" : [
                {
                    "attributes" : {
                        "POSITION" : 0,
                        "NORMAL" : 1,
                        "TEXCOORD_0" : 2
                    },
                    "indices" : 3,
                    "material" : 0
                }
            ]
        },
        {
            "name" : "Cylinder",
            "primitives" : [
                {
                    "attributes" : {
                        "POSITION" : 4,
                        "NORMAL" : 5,
                        "TEXCOORD_0" : 6
                    },
                    "indices" : 7,
                    "material" : 1
                }
            ]
        },
        {
            "name" : "Plane.022",
            "primitives" : [
                {
                    "attributes" : {
                        "POSITION" : 8,
                        "NORMAL" : 9,
                        "TEXCOORD_0" : 10
                    },
                    "indices" : 11,
                    "material" : 2
                }
            ]
        },
        {
            "name" : "Plane.023",
            "primitives" : [
                {
                    "attributes" : {
                        "POSITION" : 12,
                        "NORMAL" : 13,
                        "TEXCOORD_0" : 14
                    },
                    "indices" : 15,
                    "material" : 3
                }
            ]
        },
        {
            "name" : "Plane.021",
            "primitives" : [
                {
                    "attributes" : {
                        "POSITION" : 16,
                        "NORMAL" : 17,
                        "TEXCOORD_0" : 18
                    },
                    "indices" : 19,
                    "material" : 4
                }
            ]
        }
    ],
    "textures" : [
        {
            "source" : 0
        },
        {
            "source" : 1
        },
        {
            "source" : 2
        },
        {
            "source" : 3
        }
    ],
    "images" : [
        {
            "bufferView" : 4,
            "mimeType" : "image/png",
            "name" : "Image_0"
        },
        {
            "bufferView" : 13,
            "mimeType" : "image/png",
            "name" : "Image_1"
        },
        {
            "bufferView" : 18,
            "mimeType" : "image/png",
            "name" : "Image_2"
        },
        {
            "bufferView" : 23,
            "mimeType" : "image/png",
            "name" : "Image_3"
        }
    ],
    "accessors" : [
        {
            "bufferView" : 0,
            "componentType" : 5126,
            "count" : 66,
            "max" : [
                0.4000000059604645,
                0.029999999329447746,
                0.4000000059604645
            ],
            "min" : [
                -0.4000000059604645,
                -0.029999999329447746,
                -0.4000000059604645
            ],
            "type" : "VEC3"
        },
        {
            "bufferView" : 1,
            "componentType" : 5126,
            "count" : 66,
            "type" : "VEC3"
        },
        {
            "bufferView" : 2,
            "componentType" : 5126,
            "count" : 66,
            "type" : "VEC2"
        },
        {
            "bufferView" : 3,
            "componentType" : 5123,
            "count" : 78,
            "type" : "SCALAR"
        },
        {
            "bufferView" : 5,
            "componentType" : 5126,
            "count" : 324,
            "max" : [
                0.019999999552965164,
                1.100000023841858,
                0.019999999552965164
            ],
            "min" : [
                -0.019999999552965164,
                -1.100000023841858,
                -0.019999999552965164
            ],
            "type" : "VEC3"
        },
        {
            "bufferView" : 6,
            "componentType" : 5126,
            "count" : 324,
            "type" : "VEC3"
        },
        {
            "bufferView" : 7,
            "componentType" : 5126,
            "count" : 324,
            "type" : "VEC2"
        },
        {
            "bufferView" : 8,
            "componentType" : 5123,
            "count" : 372,
            "type" : "SCALAR"
        },
        {
            "bufferView" : 9,
            "componentType" : 5126,
            "count" : 64,
            "max" : [
                0.4000000059604645,
                0.029999999329447746,
                0.4000000059604645
            ],
            "min" : [
                -0.4000000059604645,
                -0.029999999329447746,
                -0.4000000059604645
            ],
            "type" : "VEC3"
        },
        {
            "bufferView" : 10,
            "componentType" : 5126,
            "count" : 64,
            "type" : "VEC3"
        },
        {
            "bufferView" : 11,
            "componentType" : 5126,
            "count" : 64,
            "type" : "VEC2"
        },
        {
            "bufferView" : 12,
            "componentType" : 5123,
            "count" : 78,
            "type" : "SCALAR"
        },
        {
            "bufferView" : 14,
            "componentType" : 5126,
            "count" : 84,
            "max" : [
                0.4000000059604645,
                1.421085492696024e-15,
                0.4000000059604645
            ],
            "min" : [
                -0.4000000059604645,
                -0.05999999865889549,
                -0.4000000059604645
            ],
            "type" : "VEC3"
        },
        {
            "bufferView" : 15,
            "componentType" : 5126,
            "count" : 84,
            "type" : "VEC3"
        },
        {
            "bufferView" : 16,
            "componentType" : 5126,
            "count" : 84,
            "type" : "VEC2"
        },
        {
            "bufferView" : 17,
            "componentType" : 5123,
            "count" : 108,
            "type" : "SCALAR"
        },
        {
            "bufferView" : 19,
            "componentType" : 5126,
            "count" : 174,
            "max" : [
                0.4000000059604645,
                0.05999999865889549,
                0.4000000059604645
            ],
            "min" : [
                -0.4000000059604645,
                0,
                -0.4000000059604645
            ],
            "type" : "VEC3"
        },
        {
            "bufferView" : 20,
            "componentType" : 5126,
            "count" : 174,
            "type" : "VEC3"
        },
        {
            "bufferView" : 21,
            "componentType" : 5126,
            "count" : 174,
            "type" : "VEC2"
        },
        {
            "bufferView" : 22,
            "componentType" : 5123,
            "count" : 228,
            "type" : "SCALAR"
        }
    ],
    "bufferViews" : [
        {
            "buffer" : 0,
            "byteLength" : 792,
            "byteOffset" : 0
        },
        {
            "buffer" : 0,
            "byteLength" : 792,
            "byteOffset" : 792
        },
        {
            "buffer" : 0,
            "byteLength" : 528,
            "byteOffset" : 1584
        },
        {
            "buffer" : 0,
            "byteLength" : 156,
            "byteOffset" : 2112
        },
        {
            "buffer" : 0,
            "byteLength" : 278278,
            "byteOffset" : 2268
        },
        {
            "buffer" : 0,
            "byteLength" : 3888,
            "byteOffset" : 280548
        },
        {
            "buffer" : 0,
            "byteLength" : 3888,
            "byteOffset" : 284436
        },
        {
            "buffer" : 0,
            "byteLength" : 2592,
            "byteOffset" : 288324
        },
        {
            "buffer" : 0,
            "byteLength" : 744,
            "byteOffset" : 290916
        },
        {
            "buffer" : 0,
            "byteLength" : 768,
            "byteOffset" : 291660
        },
        {
            "buffer" : 0,
            "byteLength" : 768,
            "byteOffset" : 292428
        },
        {
            "buffer" : 0,
            "byteLength" : 512,
            "byteOffset" : 293196
        },
        {
            "buffer" : 0,
            "byteLength" : 156,
            "byteOffset" : 293708
        },
        {
            "buffer" : 0,
            "byteLength" : 70844,
            "byteOffset" : 293864
        },
        {
            "buffer" : 0,
            "byteLength" : 1008,
            "byteOffset" : 364708
        },
        {
            "buffer" : 0,
            "byteLength" : 1008,
            "byteOffset" : 365716
        },
        {
            "buffer" : 0,
            "byteLength" : 672,
            "byteOffset" : 366724
        },
        {
            "buffer" : 0,
            "byteLength" : 216,
            "byteOffset" : 367396
        },
        {
            "buffer" : 0,
            "byteLength" : 23715,
            "byteOffset" : 367612
        },
        {
            "buffer" : 0,
            "byteLength" : 2088,
            "byteOffset" : 391328
        },
        {
            "buffer" : 0,
            "byteLength" : 2088,
            "byteOffset" : 393416
        },
        {
            "buffer" : 0,
            "byteLength" : 1392,
            "byteOffset" : 395504
        },
        {
            "buffer" : 0,
            "byteLength" : 456,
            "byteOffset" : 396896
        },
        {
            "buffer" : 0,
            "byteLength" : 264656,
            "byteOffset" : 397352
        }
    ],
    "buffers" : [
        {
            "byteLength" : 662008,
            "uri" : "data:application/octet-stream;base64,"
        }
    ]
}
