{
    "asset" : {
        "generator" : "Khronos glTF Blender I/O v1.1.46",
        "version" : "2.0"
    },
    "scene" : 0,
    "scenes" : [
        {
            "extras" : {
                "glTF2ExportSettings" : {
                    "export_all_influences" : 1,
                    "export_animations" : 0,
                    "export_apply" : 1,
                    "export_cameras" : 0,
                    "export_colors" : 1,
                    "export_def_bones" : 1,
                    "export_extras" : 1,
                    "export_force_sampling" : 1,
                    "export_format" : "GLTF_EMBEDDED",
                    "export_frame_range" : 1,
                    "export_materials" : 1,
                    "export_morph" : 0,
                    "export_morph_tangent" : 1,
                    "export_nla_strips" : 1,
                    "export_normals" : 1,
                    "export_selected" : 1,
                    "export_skins" : 0,
                    "export_texcoords" : 1,
                    "export_yup" : 0
                }
            },
            "name" : "Scene",
            "nodes" : [
                0,
                1,
                2,
                3,
                4,
                5
            ]
        },
        {
            "name" : "Scene.001"
        }
    ],
    "nodes" : [
        {
            "mesh" : 0,
            "name" : "Achtung",
            "rotation" : [
                0.7071067690849304,
                0,
                0,
                0.7071067690849304
            ],
            "translation" : [
                0,
                0,
                2.834970474243164
            ]
        },
        {
            "mesh" : 1,
            "name" : "Poller",
            "translation" : [
                0,
                0,
                1.3769999742507935
            ]
        },
        {
            "mesh" : 2,
            "name" : "VorfahrtAchten",
            "rotation" : [
                0,
                0.7071067690849304,
                -0.7071067690849304,
                -1.152023116901546e-07
            ],
            "translation" : [
                0,
                0,
                2.834970474243164
            ]
        },
        {
            "mesh" : 3,
            "name" : "Vorfahrtsstra\u00dfe",
            "rotation" : [
                0.6532815098762512,
                0.27059805393218994,
                -0.27059805393218994,
                0.6532814502716064
            ],
            "translation" : [
                0,
                -0.029999999329447746,
                2.990000009536743
            ]
        },
        {
            "mesh" : 4,
            "name" : "Stoppschild",
            "rotation" : [
                0.7071067690849304,
                0,
                0,
                0.7071067690849304
            ],
            "translation" : [
                0,
                0.029999999329447746,
                2.8399999141693115
            ]
        },
        {
            "mesh" : 5,
            "name" : "Sign_Target",
            "rotation" : [
                0.7071067690849304,
                0,
                0,
                0.7071067690849304
            ],
            "translation" : [
                0,
                0,
                2.834970474243164
            ]
        }
    ],
    "materials" : [
        {
            "doubleSided" : true,
            "emissiveFactor" : [
                0,
                0,
                0
            ],
            "name" : "Material.010",
            "pbrMetallicRoughness" : {
                "baseColorTexture" : {
                    "index" : 0,
                    "texCoord" : 0
                },
                "metallicFactor" : 0,
                "roughnessFactor" : 0.5
            }
        },
        {
            "doubleSided" : true,
            "emissiveFactor" : [
                0,
                0,
                0
            ],
            "name" : "Material.007",
            "pbrMetallicRoughness" : {
                "baseColorFactor" : [
                    0.15784791111946106,
                    0.15784791111946106,
                    0.15784791111946106,
                    1
                ],
                "metallicFactor" : 0.41818180680274963,
                "roughnessFactor" : 0.6954545378684998
            }
        },
        {
            "doubleSided" : true,
            "emissiveFactor" : [
                0,
                0,
                0
            ],
            "name" : "Material.008",
            "pbrMetallicRoughness" : {
                "baseColorTexture" : {
                    "index" : 1,
                    "texCoord" : 0
                },
                "metallicFactor" : 0,
                "roughnessFactor" : 0.5
            }
        },
        {
            "doubleSided" : true,
            "emissiveFactor" : [
                0,
                0,
                0
            ],
            "name" : "Material.009",
            "pbrMetallicRoughness" : {
                "baseColorTexture" : {
                    "index" : 2,
                    "texCoord" : 0
                },
                "metallicFactor" : 0.37272727489471436,
                "roughnessFactor" : 1
            }
        },
        {
            "doubleSided" : true,
            "emissiveFactor" : [
                0,
                0,
                0
            ],
            "name" : "Material.011",
            "pbrMetallicRoughness" : {
                "baseColorTexture" : {
                    "index" : 3,
                    "texCoord" : 0
                },
                "metallicFactor" : 0,
                "roughnessFactor" : 0.5
            }
        },
        {
            "doubleSided" : true,
            "emissiveFactor" : [
                0,
                0,
                0
            ],
            "name" : "Sign_Target",
            "pbrMetallicRoughness" : {
                "baseColorTexture" : {
                    "index" : 4,
                    "texCoord" : 0
                },
                "metallicFactor" : 0,
                "roughnessFactor" : 0.5
            }
        }
    ],
    "meshes" : [
        {
            "name" : "Plane.020",
            "primitives" : [
                {
                    "attributes" : {
                        "POSITION" : 0,
                        "NORMAL" : 1,
                        "TEXCOORD_0" : 2
                    },
                    "indices" : 3,
                    "material" : 0
                }
            ]
        },
        {
            "name" : "Cylinder",
            "primitives" : [
                {
                    "attributes" : {
                        "POSITION" : 4,
                        "NORMAL" : 5,
                        "TEXCOORD_0" : 6
                    },
                    "indices" : 7,
                    "material" : 1
                }
            ]
        },
        {
            "name" : "Plane.022",
            "primitives" : [
                {
                    "attributes" : {
                        "POSITION" : 8,
                        "NORMAL" : 9,
                        "TEXCOORD_0" : 10
                    },
                    "indices" : 3,
                    "material" : 2
                }
            ]
        },
        {
            "name" : "Plane.023",
            "primitives" : [
                {
                    "attributes" : {
                        "POSITION" : 11,
                        "NORMAL" : 12,
                        "TEXCOORD_0" : 13
                    },
                    "indices" : 14,
                    "material" : 3
                }
            ]
        },
        {
            "name" : "Plane.021",
            "primitives" : [
                {
                    "attributes" : {
                        "POSITION" : 15,
                        "NORMAL" : 16,
                        "TEXCOORD_0" : 17
                    },
                    "indices" : 18,
                    "material" : 4
                }
            ]
        },
        {
            "name" : "Plane.055",
            "primitives" : [
                {
                    "attributes" : {
                        "POSITION" : 19,
                        "NORMAL" : 20,
                        "TEXCOORD_0" : 21
                    },
                    "indices" : 3,
                    "material" : 5
                }
            ]
        }
    ],
    "textures" : [
        {
            "source" : 0
        },
        {
            "source" : 1
        },
        {
            "source" : 2
        },
        {
            "source" : 3
        },
        {
            "source" : 4
        }
    ],
    "images" : [
        {
            "bufferView" : 4,
            "mimeType" : "image/png",
            "name" : "AchtungKreuzung_Textur"
        },
        {
            "bufferView" : 12,
            "mimeType" : "image/png",
            "name" : "VorfahrtAchten_Textur"
        },
        {
            "bufferView" : 17,
            "mimeType" : "image/png",
            "name" : "Vorfahrtsstrasse_Textur"
        },
        {
            "bufferView" : 22,
            "mimeType" : "image/png",
            "name" : "Stoppschild_Textur"
        },
        {
            "bufferView" : 26,
            "mimeType" : "image/png",
            "name" : "Trashcan_Target"
        }
    ],
    "accessors" : [
        {
            "bufferView" : 0,
            "componentType" : 5126,
            "count" : 54,
            "max" : [
                0.4000000059604645,
                0.4000000059604645,
                0.029999999329447746
            ],
            "min" : [
                -0.4000000059604645,
                -0.4000000059604645,
                -0.029999999329447746
            ],
            "type" : "VEC3"
        },
        {
            "bufferView" : 1,
            "componentType" : 5126,
            "count" : 54,
            "type" : "VEC3"
        },
        {
            "bufferView" : 2,
            "componentType" : 5126,
            "count" : 54,
            "type" : "VEC2"
        },
        {
            "bufferView" : 3,
            "componentType" : 5123,
            "count" : 78,
            "type" : "SCALAR"
        },
        {
            "bufferView" : 5,
            "componentType" : 5126,
            "count" : 192,
            "max" : [
                0.019999999552965164,
                0.019999999552965164,
                1.100000023841858
            ],
            "min" : [
                -0.019999999552965164,
                -0.019999999552965164,
                -1.100000023841858
            ],
            "type" : "VEC3"
        },
        {
            "bufferView" : 6,
            "componentType" : 5126,
            "count" : 192,
            "type" : "VEC3"
        },
        {
            "bufferView" : 7,
            "componentType" : 5126,
            "count" : 192,
            "type" : "VEC2"
        },
        {
            "bufferView" : 8,
            "componentType" : 5123,
            "count" : 372,
            "type" : "SCALAR"
        },
        {
            "bufferView" : 9,
            "componentType" : 5126,
            "count" : 54,
            "max" : [
                0.4000000059604645,
                0.4000000059604645,
                0.029999999329447746
            ],
            "min" : [
                -0.4000000059604645,
                -0.4000000059604645,
                -0.029999999329447746
            ],
            "type" : "VEC3"
        },
        {
            "bufferView" : 10,
            "componentType" : 5126,
            "count" : 54,
            "type" : "VEC3"
        },
        {
            "bufferView" : 11,
            "componentType" : 5126,
            "count" : 54,
            "type" : "VEC2"
        },
        {
            "bufferView" : 13,
            "componentType" : 5126,
            "count" : 64,
            "max" : [
                0.4000000059604645,
                0.4000000059604645,
                1.421085492696024e-15
            ],
            "min" : [
                -0.4000000059604645,
                -0.4000000059604645,
                -0.05999999865889549
            ],
            "type" : "VEC3"
        },
        {
            "bufferView" : 14,
            "componentType" : 5126,
            "count" : 64,
            "type" : "VEC3"
        },
        {
            "bufferView" : 15,
            "componentType" : 5126,
            "count" : 64,
            "type" : "VEC2"
        },
        {
            "bufferView" : 16,
            "componentType" : 5123,
            "count" : 108,
            "type" : "SCALAR"
        },
        {
            "bufferView" : 18,
            "componentType" : 5126,
            "count" : 128,
            "max" : [
                0.4000000059604645,
                0.4000000059604645,
                0.05999999865889549
            ],
            "min" : [
                -0.4000000059604645,
                -0.4000000059604645,
                0
            ],
            "type" : "VEC3"
        },
        {
            "bufferView" : 19,
            "componentType" : 5126,
            "count" : 128,
            "type" : "VEC3"
        },
        {
            "bufferView" : 20,
            "componentType" : 5126,
            "count" : 128,
            "type" : "VEC2"
        },
        {
            "bufferView" : 21,
            "componentType" : 5123,
            "count" : 228,
            "type" : "SCALAR"
        },
        {
            "bufferView" : 23,
            "componentType" : 5126,
            "count" : 54,
            "max" : [
                0.4000000059604645,
                0.4000000059604645,
                0.029999999329447746
            ],
            "min" : [
                -0.4000000059604645,
                -0.4000000059604645,
                -0.029999999329447746
            ],
            "type" : "VEC3"
        },
        {
            "bufferView" : 24,
            "componentType" : 5126,
            "count" : 54,
            "type" : "VEC3"
        },
        {
            "bufferView" : 25,
            "componentType" : 5126,
            "count" : 54,
            "type" : "VEC2"
        }
    ],
    "bufferViews" : [
        {
            "buffer" : 0,
            "byteLength" : 648,
            "byteOffset" : 0
        },
        {
            "buffer" : 0,
            "byteLength" : 648,
            "byteOffset" : 648
        },
        {
            "buffer" : 0,
            "byteLength" : 432,
            "byteOffset" : 1296
        },
        {
            "buffer" : 0,
            "byteLength" : 156,
            "byteOffset" : 1728
        },
        {
            "buffer" : 0,
            "byteLength" : 278278,
            "byteOffset" : 1884
        },
        {
            "buffer" : 0,
            "byteLength" : 2304,
            "byteOffset" : 280164
        },
        {
            "buffer" : 0,
            "byteLength" : 2304,
            "byteOffset" : 282468
        },
        {
            "buffer" : 0,
            "byteLength" : 1536,
            "byteOffset" : 284772
        },
        {
            "buffer" : 0,
            "byteLength" : 744,
            "byteOffset" : 286308
        },
        {
            "buffer" : 0,
            "byteLength" : 648,
            "byteOffset" : 287052
        },
        {
            "buffer" : 0,
            "byteLength" : 648,
            "byteOffset" : 287700
        },
        {
            "buffer" : 0,
            "byteLength" : 432,
            "byteOffset" : 288348
        },
        {
            "buffer" : 0,
            "byteLength" : 70844,
            "byteOffset" : 288780
        },
        {
            "buffer" : 0,
            "byteLength" : 768,
            "byteOffset" : 359624
        },
        {
            "buffer" : 0,
            "byteLength" : 768,
            "byteOffset" : 360392
        },
        {
            "buffer" : 0,
            "byteLength" : 512,
            "byteOffset" : 361160
        },
        {
            "buffer" : 0,
            "byteLength" : 216,
            "byteOffset" : 361672
        },
        {
            "buffer" : 0,
            "byteLength" : 23715,
            "byteOffset" : 361888
        },
        {
            "buffer" : 0,
            "byteLength" : 1536,
            "byteOffset" : 385604
        },
        {
            "buffer" : 0,
            "byteLength" : 1536,
            "byteOffset" : 387140
        },
        {
            "buffer" : 0,
            "byteLength" : 1024,
            "byteOffset" : 388676
        },
        {
            "buffer" : 0,
            "byteLength" : 456,
            "byteOffset" : 389700
        },
        {
            "buffer" : 0,
            "byteLength" : 264656,
            "byteOffset" : 390156
        },
        {
            "buffer" : 0,
            "byteLength" : 648,
            "byteOffset" : 654812
        },
        {
            "buffer" : 0,
            "byteLength" : 648,
            "byteOffset" : 655460
        },
        {
            "buffer" : 0,
            "byteLength" : 432,
            "byteOffset" : 656108
        },
        {
            "buffer" : 0,
            "byteLength" : 16919,
            "byteOffset" : 656540
        }
    ],
    "buffers" : [
        {
            "byteLength" : 673460,
            "uri" : "data:application/octet-stream;base64,"
        }
    ]
}
